<svg width="93" height="112" xmlns="http://www.w3.org/2000/svg" preserveAspectRatio="xMidYMid meet" version="1.0">
 <metadata>Created by potrace 1.7, written by Peter Selinger
  2001-2005</metadata>

 <g>
  <title>Layer 1</title>
  <g id="svg_1" fill="#000000" transform="translate(0 239) scale(0.016963 -0.016963)">
   <path id="svg_2" d="m2114.48926,13886.01367c-34,-19 -84,-21 -109,-5c-6,4 -15,1 -19,-5c-5,-9 -14,-9 -35,1c-22,10 -29,10 -33,0c-2,-6 -11,-12 -21,-12c-9,0 -23,-6 -29,-12c-10,-10 -17,-10 -32,0c-27,16 -55,15 -190,-7c-113,-19 -180,-42 -180,-63c0,-5 -7,-8 -15,-5c-8,4 -17,2 -20,-3c-4,-6 -13,-10 -21,-10c-8,0 -26,-11 -40,-25c-14,-14 -30,-25 -37,-26c-25,-2 -62,3 -70,10c-4,4 -33,4 -65,0c-63,-9 -100,6 -109,42c-6,20 -20,24 -39,11c-6,-4 -22,-32 -35,-62c-34,-81 -57,-108 -119,-137c-60,-29 -120,-82 -120,-107c0,-9 -10,-31 -22,-47c-18,-24 -23,-44 -23,-94c0,-38 -5,-69 -12,-76c-7,-7 -13,-18 -13,-24c0,-5 -16,-24 -36,-40c-20,-17 -45,-38 -56,-48c-23,-21 -80,-47 -103,-47c-22,0 -36,-16 -62,-72c-13,-27 -27,-48 -31,-48c-27,0 -82,-82 -82,-123c0,-24 -26,-64 -66,-102c-12,-11 -32,-47 -45,-80c-12,-33 -30,-66 -40,-72c-9,-7 -20,-29 -24,-50c-3,-21 -9,-49 -12,-62c-4,-17 -2,-22 8,-19c7,2 24,-7 36,-20c23,-25 30,-52 14,-52c-17,0 -22,-50 -6,-73c21,-30 19,-116 -5,-177c-11,-28 -20,-62 -20,-77c0,-30 -49,-113 -67,-113c-7,0 -13,-4 -13,-10c0,-5 7,-10 15,-10c9,0 20,-12 26,-27c6,-16 15,-36 20,-45c5,-10 5,-19 -1,-23c-6,-3 -10,-27 -10,-53c1,-39 6,-52 30,-76c33,-32 39,-49 14,-39c-13,5 -15,2 -9,-18c11,-35 18,-39 40,-22c14,11 16,17 8,20c-15,5 -18,33 -4,33c5,0 14,-13 20,-30c5,-16 15,-30 20,-30c6,0 11,-7 11,-15c0,-8 7,-15 15,-15c8,0 15,-3 15,-8c0,-4 23,-31 50,-61c32,-35 50,-63 51,-80c1,-42 7,-64 20,-71c6,-4 8,-13 5,-19c-4,-6 -3,-11 3,-11c6,0 8,-6 6,-12c-3,-8 12,-20 37,-31c42,-17 77,-45 197,-153c121,-109 151,-118 242,-74c96,46 247,50 331,9c11,-5 28,-3 45,6c92,46 161,75 181,75c12,0 25,7 28,14c7,19 88,36 181,38c59,2 75,-1 93,-17c25,-23 60,-87 60,-109c0,-8 10,-25 23,-36c17,-17 30,-20 57,-15c19,3 53,8 75,10c22,3 54,6 72,8c26,4 33,0 37,-19c3,-12 15,-26 26,-29c11,-3 20,-12 20,-19c0,-8 6,-19 14,-25c19,-16 10,-113 -15,-163c-13,-25 -15,-38 -7,-40c7,-3 9,-11 3,-24c-4,-10 -10,-39 -12,-64c-5,-43 -18,-64 -35,-54c-13,8 -9,-20 6,-52c8,-16 22,-47 32,-69c10,-22 35,-56 54,-75c71,-69 160,-201 160,-238c0,-12 5,-24 10,-27c6,-4 8,-10 5,-15c-3,-5 5,-33 19,-62c13,-29 32,-77 43,-106c18,-52 18,-54 -1,-67c-18,-14 -18,-17 14,-97c22,-56 32,-98 31,-128c-2,-52 -18,-100 -35,-100c-19,-1 -65,-84 -72,-131c-8,-60 -34,-149 -42,-149c-13,0 -7,-184 7,-217c7,-18 17,-33 20,-33c10,0 53,-89 96,-195c9,-22 28,-60 43,-85c21,-36 27,-59 28,-115c1,-38 6,-92 12,-120c6,-27 18,-90 27,-139c19,-103 33,-135 85,-192c24,-26 45,-65 60,-110c24,-74 57,-146 71,-155c5,-3 12,-26 15,-52c6,-39 4,-47 -9,-47c-8,0 -17,-6 -20,-12c-4,-14 12,-48 27,-59c5,-4 7,-18 4,-32c-7,-34 8,-58 22,-37c6,10 10,11 10,3c0,-7 6,-13 13,-13c8,0 22,-9 32,-20c22,-25 42,-25 67,-3c12,11 34,17 60,16c23,-1 51,5 65,14c29,19 101,24 156,11c26,-6 43,-6 52,2c8,6 24,10 37,8c13,-2 22,2 21,8c-1,7 17,14 41,16c53,6 154,72 211,136c11,13 37,40 59,60c37,36 106,134 106,151c0,13 67,81 80,81c11,0 29,37 54,115c18,56 22,130 6,120c-18,-11 -10,13 13,40c12,14 54,38 92,54c51,20 76,37 93,61c14,21 19,37 13,43c-6,6 -6,19 1,36c13,32 11,112 -2,125c-6,6 -10,15 -10,20c0,6 5,4 10,-4c8,-12 10,-11 10,8c0,12 -5,21 -12,20c-7,-2 -12,11 -13,32c-1,19 -7,36 -14,38c-6,2 -11,14 -11,26c0,26 90,126 114,126c9,0 16,4 16,8c0,4 8,19 18,32c36,49 73,78 129,101c32,12 60,26 63,29c3,4 12,11 21,16c26,14 93,105 107,146c10,29 10,47 2,80c-7,24 -11,99 -10,173c3,167 4,160 -23,172c-19,9 -28,26 -40,80c-22,87 -21,100 3,106c11,3 20,11 20,17c0,7 -7,10 -15,6c-20,-7 -32,21 -18,43c8,13 4,25 -18,52c-16,18 -29,41 -29,49c0,21 33,114 43,121c10,7 56,113 64,147c3,12 15,27 26,33c31,17 83,73 103,110c43,85 178,230 260,282c54,34 213,208 214,234c0,4 16,33 35,63c19,30 35,62 35,72c0,20 61,151 73,156c4,2 7,8 7,14c0,5 11,32 25,60c14,27 25,65 25,85c0,26 5,36 20,40c21,6 27,19 10,25c-9,3 -14,56 -8,92c5,28 -37,40 -59,17c-22,-22 -108,-52 -129,-44c-8,3 -26,0 -39,-7c-13,-7 -34,-10 -46,-7c-13,4 -32,-2 -49,-15c-20,-14 -38,-19 -61,-16c-22,3 -44,-1 -64,-13c-52,-32 -90,-19 -130,44c-10,15 -28,30 -42,33l-24,6l23,12c38,19 34,48 -14,98c-24,25 -50,55 -58,67c-8,11 -19,21 -25,21c-5,0 -18,14 -27,30c-10,17 -25,33 -35,37c-10,4 -24,13 -31,20c-7,6 -19,10 -26,7c-9,-3 -15,4 -18,20c-4,18 -1,26 9,26c12,0 12,2 -1,15c-19,20 -23,19 -30,-7c-6,-23 -7,-23 -21,-3c-9,11 -20,38 -25,60c-28,115 -42,144 -91,182c-56,44 -70,76 -73,173c-2,38 -9,76 -15,84c-7,9 -14,27 -15,41c0,14 -3,25 -6,25c-3,0 -24,17 -48,38c-47,42 -75,112 -44,112c11,0 8,7 -11,24c-14,13 -38,50 -55,82c-16,33 -39,76 -51,97c-11,21 -21,43 -21,50c0,7 -8,24 -17,37c-10,14 -19,33 -20,43c-2,11 -19,37 -38,60c-19,22 -35,51 -35,63c0,13 -4,25 -9,29c-6,3 -13,37 -17,75c-3,38 -12,77 -19,87c-26,35 -145,23 -189,-19c-12,-11 -29,-17 -41,-14c-11,2 -40,10 -65,15c-25,6 -54,15 -65,20c-36,16 -103,29 -128,24c-19,-4 -27,0 -32,16c-5,16 -15,21 -38,21c-54,0 -104,19 -110,40c-3,12 -14,20 -25,20c-12,0 -24,5 -27,10c-15,24 -110,2 -155,-36c-31,-27 -40,-72 -21,-103c16,-26 -24,-80 -60,-81c-8,0 -33,13 -55,28c-41,30 -104,52 -145,52c-35,0 -66,25 -74,61c-5,20 -16,34 -33,41c-15,6 -40,17 -56,26c-18,9 -52,15 -82,14c-33,-1 -66,6 -93,18c-40,20 -67,51 -54,64c3,3 -1,6 -10,6c-9,0 -17,-4 -17,-10c0,-17 -29,-11 -40,9c-8,16 -4,24 20,45c17,14 37,23 45,20c8,-4 15,-1 15,6c0,6 -5,8 -10,5c-7,-4 -8,7 -4,33c5,34 3,42 -15,51c-25,14 -27,36 -5,58c8,9 13,22 10,30c-3,8 -1,11 4,8c6,-3 10,-2 10,3c0,19 -14,21 -32,5c-18,-16 -19,-16 -24,4c-5,17 -29,32 -54,33c-3,0 -22,-9 -42,-19zm1908,-3229c8,-11 9,-21 2,-29c-5,-7 -7,-16 -4,-21c6,-11 -15,-62 -26,-62c-5,0 -8,-5 -8,-11c0,-7 -8,-18 -17,-25c-17,-13 -17,-15 0,-28c25,-20 10,-26 -43,-16c-27,5 -50,4 -57,-1c-19,-16 -24,6 -18,78c10,107 11,110 52,123c21,7 42,16 47,20c11,11 56,-6 72,-28zm-346,-384c0,-15 5,-30 11,-33c6,-4 8,-14 5,-22c-3,-8 -1,-24 5,-36c9,-16 9,-22 0,-25c-20,-7 -12,-42 13,-51c24,-10 36,-30 36,-62c0,-11 11,-42 25,-69c31,-61 31,-62 0,-48c-16,7 -24,17 -20,26c3,7 -2,23 -10,35c-8,12 -15,28 -15,35c0,8 -13,30 -30,49c-16,18 -31,41 -32,51c0,9 -2,31 -4,47c-2,17 -5,66 -7,110c-3,72 -2,77 9,50c7,-16 13,-42 14,-57zm360,-458c6,-11 12,-41 14,-65c1,-25 8,-51 14,-57c15,-15 16,-55 2,-63c-14,-9 -6,-148 9,-153c6,-2 11,-8 11,-13c0,-6 -4,-7 -10,-4c-5,3 -10,1 -10,-4c0,-6 -5,-11 -11,-11c-6,0 -8,9 -4,20c4,12 2,26 -3,33c-10,13 -25,90 -23,122c7,119 5,153 -6,175c-7,14 -13,28 -13,33c0,15 20,6 30,-13z"/>
   <path id="svg_3" d="m5146.48926,9613.01367c-8,-13 -15,-38 -17,-57c-3,-42 -9,-48 -33,-33c-16,10 -20,10 -20,-2c0,-8 6,-17 13,-20c6,-3 2,-3 -10,0c-23,5 -27,-1 -24,-38c1,-9 -3,-19 -9,-23c-5,-3 -10,-15 -10,-25c0,-13 -5,-17 -15,-14c-9,4 -15,0 -15,-9c0,-20 -71,-70 -125,-88c-22,-7 -44,-17 -49,-21c-6,-4 -20,-8 -33,-8c-18,0 -23,-5 -23,-27c0,-16 -9,-41 -19,-57c-20,-30 -20,-54 0,-169c12,-67 12,-69 -17,-125c-16,-31 -33,-60 -37,-63c-35,-25 -48,-116 -23,-163c8,-16 12,-44 9,-70c-3,-26 -1,-46 6,-50c6,-4 11,-15 11,-25c0,-22 30,-51 53,-51c9,0 17,-4 17,-10c0,-15 52,-11 74,5c11,8 32,15 47,15c30,0 69,40 69,69c0,9 6,25 14,36c7,11 19,45 26,75c8,30 22,71 31,91c10,20 24,58 30,85c7,27 29,92 50,146c21,53 41,114 44,135c12,72 15,83 28,80c12,-2 13,7 1,83l-7,45l20,-24l20,-25l17,32c12,24 14,37 6,51c-5,11 -10,40 -10,64c0,24 -5,59 -11,78c-14,44 -53,128 -59,129c-3,0 -12,-10 -20,-22z"/>
  </g>
  <polyline stroke-linecap="round" id="svg_53" points="-194,227.5 -194,227.5 -194,227.5 " stroke="#000" fill="none"/>
  <polyline stroke-linecap="round" id="svg_54" points="136,144.5 136,144.5 " stroke="#000" fill="none"/>
 </g>
</svg>