<svg width="165" height="137" xmlns="http://www.w3.org/2000/svg" version="1.0" preserveAspectRatio="xMidYMid meet">
 <metadata>Created by potrace 1.7, written by Peter Selinger
  2001-2005</metadata>

 <g>
  <title>Layer 1</title>
  <g transform="translate(0 239) scale(0.016963 -0.016963)" fill="#000000" id="svg_4">
   <path d="m2987.04199,13873.80733c-68,-17 -73,-19 -50,-28c19,-8 19,-9 -2,-9c-33,-1 -38,-20 -12,-47c25,-26 45,-31 52,-11c4,10 6,10 6,0c1,-7 8,-13 16,-13c8,0 15,6 15,13c0,8 3,8 9,-2c5,-8 16,-11 25,-8c9,4 36,0 59,-8c46,-15 187,-35 254,-35c45,0 68,18 34,27c-12,3 -21,13 -21,23c0,23 -24,31 -102,36c-79,5 -102,12 -89,28c8,9 -5,15 -52,25c-98,20 -100,20 -142,9z" id="svg_5"/>
   <path d="m3636.04199,13656.80733c-27,-12 -38,-39 -23,-57c9,-12 3,-14 -34,-14c-25,0 -47,-4 -49,-9c-1,-5 -20,-12 -41,-15c-28,-4 -36,-3 -31,5c10,17 -184,3 -201,-15c-7,-7 -44,-16 -81,-19c-37,-4 -78,-14 -91,-23c-15,-9 -34,-13 -49,-10c-14,4 -24,2 -24,-4c0,-5 -7,-10 -15,-10c-8,0 -15,-8 -16,-17c0,-11 -3,-13 -6,-5c-7,18 -40,15 -47,-4c-4,-9 -3,-20 0,-23c4,-3 9,0 11,6c3,9 10,9 28,-3c13,-8 31,-14 41,-12c9,2 19,-3 21,-9c6,-16 -73,-18 -82,-3c-3,6 -14,10 -23,10c-14,0 -14,-2 -3,-9c21,-13 -10,-20 -108,-23l-84,-2l29,-23c16,-13 39,-33 50,-44c13,-13 40,-23 68,-26c25,-3 46,-9 46,-14c0,-4 8,-10 18,-12c9,-3 2,-5 -16,-6c-19,0 -46,5 -60,13c-24,13 -86,27 -188,43c-20,3 -35,-1 -43,-11c-12,-14 -10,-16 10,-17c26,-1 20,-4 -25,-14c-28,-6 -28,-7 -9,-20c10,-7 35,-18 54,-24c33,-11 33,-11 -14,-7c-49,4 -76,24 -77,57c0,18 -41,59 -58,59c-7,0 -21,6 -32,12c-14,9 -22,10 -31,1c-8,-8 -2,-14 21,-22c18,-6 37,-8 43,-4c5,3 7,1 3,-5c-3,-6 -2,-13 4,-17c18,-11 10,-23 -20,-30c-16,-4 -30,-13 -30,-20c0,-7 -5,-15 -12,-17c-6,-2 14,-17 46,-33c54,-27 56,-30 50,-61c-5,-26 -2,-35 15,-46c12,-7 21,-19 21,-27c0,-11 15,-12 73,-8c62,5 67,4 34,-5c-51,-14 -57,-34 -21,-63c23,-19 27,-26 17,-36c-7,-7 -13,-23 -13,-35c0,-17 -8,-24 -30,-29c-18,-4 -30,-13 -30,-22c0,-12 -7,-14 -32,-9c-18,3 -37,11 -43,17c-7,7 -5,8 6,4c11,-4 21,5 34,35c10,22 21,40 25,40c5,0 7,15 6,33c-1,28 -7,35 -43,51c-24,10 -43,24 -43,30c0,6 -10,27 -22,46c-12,19 -23,43 -25,53c-4,25 -26,45 -58,53c-19,5 -23,10 -16,17c15,15 13,48 -3,70c-10,13 -35,21 -83,26c-41,5 -54,9 -33,10c33,2 34,2 16,16c-25,19 -100,21 -94,3c3,-7 -1,-19 -9,-26c-7,-7 -13,-31 -13,-52c0,-34 -4,-42 -30,-55c-37,-19 -39,-42 -5,-55c19,-7 25,-17 25,-39c0,-32 22,-56 43,-48c8,3 27,-4 43,-14c16,-11 39,-24 52,-29c22,-9 29,-25 15,-33c-5,-3 -39,8 -78,24c-101,41 -118,39 -72,-9c20,-21 37,-42 37,-47c-2,-35 -111,-112 -212,-150c-26,-10 -52,-23 -58,-30c-7,-8 7,-49 46,-136c57,-126 83,-238 84,-351c0,-60 14,-96 51,-130c52,-48 28,-128 -39,-128c-16,0 -37,-9 -47,-20c-17,-18 -17,-20 6,-49c13,-16 35,-46 49,-65c34,-48 67,-48 109,-1c39,45 70,46 95,4c16,-26 16,-37 6,-77c-10,-43 -10,-48 9,-62c66,-49 66,-49 53,-58c-17,-12 4,-30 55,-47c67,-23 51,-81 -20,-72c-27,4 -40,1 -44,-9c-7,-18 -31,-18 -49,1c-9,8 -24,15 -35,15c-10,0 -19,5 -19,11c0,8 -15,10 -48,5c-36,-5 -62,-1 -107,16c-65,23 -188,29 -208,9c-6,-6 -34,-11 -61,-11c-28,0 -68,-5 -89,-11c-37,-10 -37,-10 -31,-52c8,-53 18,-72 61,-120c27,-30 33,-45 31,-73c-2,-29 3,-40 25,-56c15,-11 27,-26 27,-33c0,-18 34,-28 70,-20c23,5 32,2 45,-19c16,-23 29,-119 15,-111c-3,2 -29,6 -57,9c-46,4 -52,2 -62,-21c-6,-13 -9,-29 -6,-34c4,-5 -8,-9 -25,-9c-28,0 -30,-2 -20,-20c6,-11 17,-20 25,-20c8,0 22,-13 32,-30c9,-16 21,-30 25,-30c4,0 8,-9 8,-21c0,-13 4,-18 12,-13c6,4 16,0 22,-8c7,-9 23,-18 36,-20c34,-4 39,-14 33,-59c-3,-22 -2,-39 4,-39c16,0 45,-61 39,-83c-7,-29 16,-73 35,-69c12,2 14,-5 11,-30c-4,-25 -2,-30 11,-25c25,9 44,-24 55,-93c6,-36 13,-72 16,-80c5,-13 -8,-19 -62,-33c-82,-19 -120,-12 -177,33c-21,17 -48,30 -60,30c-30,0 -55,30 -62,75c-4,26 -2,40 8,45c8,6 13,28 14,57c0,46 1,48 28,48c15,-1 27,4 27,10c0,7 -14,9 -33,7c-48,-5 -251,99 -337,173l-65,57l-54,-6c-48,-6 -59,-3 -100,23c-25,16 -62,32 -81,36c-19,4 -50,15 -68,26c-25,14 -38,16 -59,8l-26,-10l23,-24c12,-13 48,-36 79,-51c43,-21 62,-37 75,-64c34,-70 -10,-100 -149,-105c-53,-2 -95,1 -95,6c0,5 -13,9 -29,9c-17,0 -33,5 -36,10c-4,6 -15,8 -25,5c-13,-4 -22,1 -30,15c-8,15 -17,19 -32,14c-15,-4 -26,0 -37,13c-15,18 -23,19 -98,13c-80,-8 -140,-31 -169,-66c-8,-10 -28,-11 -83,-5c-74,7 -104,-2 -79,-27c24,-24 -14,-38 -107,-40c-49,-1 -91,-6 -93,-11c-2,-6 -10,-7 -18,-4c-8,3 -14,0 -14,-6c0,-6 7,-11 15,-11c9,0 15,-9 15,-25c0,-23 8,-29 37,-26c6,1 10,-6 8,-16c-1,-10 0,-22 4,-28c3,-5 6,-19 8,-30c1,-11 -1,-14 -3,-7c-9,20 -31,13 -29,-10c1,-15 12,-26 36,-34c19,-7 28,-13 21,-13c-10,-1 -10,-5 0,-23c7,-13 17,-26 22,-29c4,-4 0,-12 -10,-18c-20,-11 -16,-13 31,-14c16,0 17,-1 3,-4c-10,-3 -18,-9 -18,-15c0,-5 7,-8 15,-4c8,3 15,1 15,-4c0,-6 7,-10 15,-10c8,0 15,5 15,11c0,16 47,2 70,-21c15,-15 31,-20 60,-18c39,3 45,10 41,46c-4,29 77,3 123,-40c30,-27 113,-17 139,18c21,27 38,30 67,12c15,-10 23,-9 40,7c25,22 39,13 16,-11c-12,-11 -14,-20 -7,-27c6,-6 6,-18 1,-32c-5,-12 -5,-26 -1,-31c12,-13 21,-80 12,-90c-13,-15 -49,-125 -61,-185c-12,-62 -34,-90 -71,-90c-13,-1 -39,-3 -56,-5c-29,-4 -33,-9 -33,-35c0,-48 20,-115 41,-138c10,-11 19,-27 19,-34c0,-15 72,-97 85,-97c3,0 13,7 21,15c9,8 24,15 35,15c10,0 19,-7 19,-15c0,-8 5,-15 10,-15c6,0 10,-5 10,-10c0,-6 8,-19 18,-30c9,-10 26,-36 37,-57c11,-21 28,-47 38,-58c24,-26 50,-75 43,-82c-9,-9 27,-63 41,-63c8,0 16,-7 19,-15c4,-8 11,-12 17,-8c5,3 7,1 4,-4c-4,-6 2,-22 13,-36c11,-14 20,-32 20,-40c0,-9 5,-19 11,-23c7,-4 9,-21 5,-44c-4,-28 -2,-41 10,-51c8,-7 13,-21 11,-31c-4,-12 3,-24 18,-34c14,-9 27,-23 30,-32c2,-10 18,-26 34,-37c16,-10 28,-22 26,-26c-3,-3 7,-11 20,-17c19,-9 25,-19 25,-43c0,-19 7,-37 18,-45c9,-7 17,-17 17,-22c0,-5 17,-26 38,-46c20,-21 37,-44 37,-52c0,-8 4,-14 9,-14c5,0 14,-14 20,-32c11,-31 11,-31 -9,-13c-11,10 -17,22 -14,26c3,5 -2,6 -11,3c-10,-4 -15,-2 -13,7c2,7 -5,15 -14,17c-13,2 -16,-1 -12,-15c5,-17 5,-17 -9,0c-8,10 -18,14 -20,9c-7,-10 47,-94 55,-86c9,8 51,-37 53,-55c0,-9 4,-21 7,-26c8,-14 42,-127 43,-145c3,-48 17,-68 52,-75c20,-3 40,-2 46,4c5,5 15,7 22,5c7,-3 28,9 46,25c22,21 44,31 65,31c34,0 99,24 109,40c3,5 21,10 40,10c24,0 39,7 54,26c13,17 49,36 103,55c97,35 144,61 140,79c-6,27 10,48 51,65c78,32 88,35 121,35c37,0 52,13 58,50c2,19 10,26 33,28c37,5 55,19 55,43c0,22 36,49 66,49c19,0 21,5 20,61c-1,65 10,82 36,55c13,-13 17,-12 30,3c15,18 13,45 -3,35c-17,-10 -9,15 15,43c29,35 56,87 56,108c0,9 -9,15 -21,15c-12,0 -23,8 -26,20c-3,11 -9,20 -14,20c-5,0 -9,5 -9,11c0,21 -32,42 -78,50c-90,17 -134,73 -134,170c0,62 -12,74 -33,32c-21,-40 -139,-160 -153,-155c-7,2 -12,0 -12,-5c0,-5 -16,-7 -35,-5c-19,2 -35,8 -35,13c0,5 -4,9 -10,9c-5,0 -10,-6 -10,-14c0,-23 -20,-29 -39,-12c-10,9 -23,16 -30,16c-8,0 -10,7 -4,23c11,32 4,120 -10,129c-24,15 -36,7 -48,-32l-12,-40l-19,27c-20,32 -23,43 -8,43c6,0 10,-7 10,-16c0,-8 5,-12 10,-9c17,11 11,37 -10,42c-11,3 -21,9 -21,14c-1,5 -2,13 -3,19c0,5 -10,16 -21,24c-11,8 -20,20 -20,28c-1,7 -6,12 -13,11c-7,-2 -12,1 -12,6c0,5 -9,13 -20,16c-11,3 -20,13 -20,21c0,8 -4,14 -8,14c-14,0 -53,96 -46,116c4,12 3,15 -3,7c-6,-8 -14,-9 -23,-3c-13,8 -13,10 0,10c9,0 23,8 32,18c33,34 44,40 62,30c9,-5 24,-7 34,-4c12,4 24,-5 40,-27c12,-18 22,-38 22,-44c0,-6 4,-13 9,-15c5,-1 22,-25 37,-52c21,-35 39,-51 64,-60c19,-7 48,-24 64,-39c16,-15 36,-27 45,-27c13,0 13,-2 3,-9c-10,-6 -3,-10 22,-15c20,-4 34,-11 31,-17c-4,-5 -1,-9 4,-9c6,0 11,5 11,10c0,7 7,7 20,0c11,-6 25,-8 31,-5c5,4 26,9 46,11c40,5 66,21 57,35c-8,14 34,10 43,-3c4,-7 13,-31 18,-53c13,-49 51,-70 144,-80c75,-8 106,-13 141,-21c43,-11 130,-13 130,-4c0,4 18,6 40,3c24,-4 40,-2 40,5c0,6 13,7 36,2c20,-5 64,-4 101,2c74,11 93,7 93,-22c0,-13 7,-20 19,-20c12,0 21,-10 26,-27c8,-34 33,-63 53,-63c8,0 28,-13 43,-30c41,-42 82,-61 121,-54c31,5 32,5 14,-10c-20,-16 -36,-20 -68,-17c-10,1 -18,-3 -18,-10c0,-19 138,-149 157,-149c52,2 127,70 104,93c-10,10 -3,47 9,47c4,0 5,-11 2,-25c-2,-15 0,-25 7,-25c7,0 9,-5 6,-10c-4,-6 1,-24 9,-42c11,-21 14,-43 10,-66c-4,-19 -2,-50 4,-70c26,-91 45,-161 57,-214c7,-31 30,-89 50,-130c21,-40 46,-89 55,-108c10,-19 25,-61 33,-94c9,-32 31,-81 50,-110c37,-55 87,-173 87,-203c0,-26 54,-109 80,-123c29,-15 65,8 73,48c7,32 42,48 79,36c15,-4 19,-2 16,7c-3,8 -11,14 -19,14c-16,0 -16,8 -5,48c6,20 15,27 33,27c22,0 24,3 18,29c-10,49 -9,129 3,143c16,19 17,101 2,178c-19,107 -14,136 26,126c19,-5 25,-2 30,19c3,14 12,25 20,25c34,0 64,24 64,52c0,15 4,28 9,28c16,0 116,101 148,150c17,26 48,55 70,65c21,11 48,30 61,42c23,21 25,33 20,82c-2,13 4,27 12,31c8,4 25,12 38,19c18,9 24,9 28,-3c6,-15 44,-13 98,4c16,6 41,10 55,10c35,1 76,33 68,53c-3,9 -2,19 2,22c5,2 11,-5 14,-16c3,-12 10,-18 15,-15c11,7 22,-16 22,-45c0,-24 22,-61 67,-112c18,-20 33,-42 33,-48c0,-6 8,-9 18,-7c20,6 46,-17 39,-35c-2,-7 0,-20 5,-29c6,-13 5,-18 -4,-18c-9,0 -9,-3 0,-12c10,-10 15,-10 20,-1c12,18 29,2 51,-48c17,-37 19,-58 15,-121l-6,-75l28,-8c56,-15 74,-14 88,7c8,11 30,31 50,44c23,16 36,33 36,47c1,31 67,-108 76,-158c3,-22 13,-52 20,-67c8,-15 14,-38 14,-53c0,-15 6,-25 14,-25c8,0 19,-14 25,-31c15,-42 14,-49 -4,-43c-11,5 -13,2 -9,-10c3,-9 10,-16 15,-16c4,0 3,-14 -3,-31c-8,-23 -13,-27 -19,-17c-5,7 -9,9 -9,3c0,-19 16,-34 35,-32c22,2 33,-29 16,-46c-7,-7 -15,-6 -26,3c-9,8 -15,8 -15,2c0,-6 8,-15 17,-21c19,-10 24,-78 10,-136c-10,-42 3,-129 16,-116c20,20 47,13 47,-11c0,-19 2,-20 10,-8c7,12 10,12 10,1c0,-7 14,-30 30,-51c27,-34 29,-40 15,-48c-15,-8 -15,-10 -1,-21c14,-11 16,-11 16,5c0,17 1,17 15,-2c8,-12 13,-40 12,-63c-1,-23 3,-45 9,-49c6,-4 14,-26 18,-49c3,-24 17,-54 31,-69c14,-15 25,-37 25,-49c0,-16 19,-35 73,-71c79,-53 97,-70 93,-87c-2,-7 -1,-9 1,-4c9,15 35,7 29,-9c-4,-12 -2,-15 9,-10c10,4 15,-1 15,-14c0,-11 5,-20 11,-20c7,0 9,9 6,21c-4,16 -3,18 8,9c9,-8 15,-8 20,0c10,16 -4,30 -33,31c-17,1 -21,3 -9,6c9,2 17,11 17,19c0,8 -3,13 -7,11c-5,-3 -9,6 -9,19c-1,13 -14,40 -29,60c-24,31 -27,44 -27,107c1,40 -4,86 -11,102c-11,29 -90,115 -105,115c-4,0 -16,14 -26,31c-13,21 -24,29 -36,26c-31,-8 -57,20 -71,75c-6,29 -18,58 -24,63c-15,12 -28,75 -16,75c10,0 9,26 -2,36c-4,4 -7,-3 -7,-15c0,-26 -28,-40 -41,-20c-13,19 -5,103 15,169c10,30 18,82 19,115c2,58 3,60 30,63c25,3 27,1 27,-36c0,-37 1,-39 35,-40c43,-2 75,-18 75,-38c0,-9 7,-14 18,-12c11,2 22,-8 34,-32c10,-19 17,-41 18,-47c0,-16 36,-53 51,-53c5,0 7,6 3,13c-4,7 -3,9 2,4c9,-9 10,-13 13,-42c2,-24 21,-18 21,7c0,19 2,20 18,6c9,-8 26,-18 37,-22c14,-5 16,-9 7,-15c-18,-11 -14,-121 5,-121c7,0 18,9 25,20c7,12 32,32 55,46c39,22 55,47 58,89c1,6 6,9 13,7c17,-3 69,25 101,54c14,13 31,24 38,24c14,0 25,52 19,92c-2,15 1,25 5,22c5,-3 9,4 9,15c0,11 -4,22 -9,25c-4,3 -11,27 -14,53c-3,26 -13,62 -21,78c-9,17 -16,37 -16,46c0,8 -13,28 -30,44c-16,16 -30,34 -30,41c0,7 -8,15 -19,19c-23,7 -141,120 -141,134c0,6 -15,26 -34,46c-29,29 -34,42 -34,81c0,29 5,47 13,50c7,3 21,21 30,40c9,19 20,32 25,29c4,-3 11,2 14,10c3,8 11,14 18,13c7,-2 12,4 12,13c-2,21 66,45 93,34c10,-4 29,-7 42,-6c19,2 22,-1 17,-14c-9,-25 25,-94 47,-95c23,0 31,23 17,50c-8,15 -8,20 -1,16c7,-4 11,1 11,13c0,12 6,22 13,22c6,1 17,2 22,4c6,1 16,3 23,3c7,1 10,7 6,14c-4,6 -3,8 4,4c6,-3 13,-2 17,3c4,7 15,7 31,1c36,-14 47,-12 40,6c-3,8 -2,12 4,9c6,-3 10,-1 10,5c0,6 5,8 11,4c16,-9 29,16 24,46c-4,24 -4,24 7,-2c11,-26 48,-40 48,-19c0,5 18,19 41,30c22,12 38,17 34,11c-3,-5 -1,-10 4,-10c6,0 11,5 11,10c0,6 3,9 8,9c35,-6 55,4 65,30c6,17 20,32 31,35c12,3 30,19 41,36c11,16 25,30 32,30c16,0 36,37 27,52c-4,6 -3,9 2,6c11,-7 35,17 27,26c-4,3 3,6 15,6c13,0 22,6 22,16c0,8 -4,13 -9,10c-13,-8 -22,36 -11,49c6,7 7,15 3,18c-3,4 -1,7 5,7c7,0 12,9 12,19c0,11 5,23 10,26c6,3 10,17 10,30c0,34 10,55 26,55c8,0 15,6 15,13c5,36 4,54 -4,70c-5,11 -4,16 4,15c7,-2 12,18 14,60c1,34 -2,62 -7,62c-4,0 -9,-4 -9,-10c-1,-5 -2,-14 -3,-19c-2,-20 -16,-23 -32,-6c-11,10 -25,14 -40,11c-34,-9 -21,19 17,36c30,14 36,23 19,33c-6,4 -8,10 -5,14c2,5 -8,11 -24,14c-32,7 -48,32 -25,41c7,3 13,0 11,-6c-1,-6 4,-13 11,-15c6,-3 12,2 12,9c0,12 -34,42 -85,76c-5,4 -17,19 -25,33c-40,70 -84,116 -130,138c-45,21 -49,26 -43,49c3,14 19,38 35,54c29,29 37,44 16,32c-7,-4 2,7 20,25c22,20 43,31 63,31c24,0 29,4 29,24c0,31 -6,34 -62,40c-25,2 -55,9 -66,15c-21,11 -76,5 -68,-8c2,-3 -2,-15 -10,-25c-12,-16 -18,-18 -39,-8c-14,6 -25,20 -25,29c-1,30 -23,50 -58,51c-46,1 -82,26 -82,58c0,20 4,25 16,20c30,-11 65,5 70,33c3,15 19,36 35,46c16,11 29,26 29,33c0,23 25,40 53,35c40,-8 53,-28 37,-61c-19,-37 -18,-45 3,-61c17,-12 17,-15 3,-30c-15,-17 -12,-31 5,-31c5,0 26,19 48,41c32,33 48,42 85,46c25,3 53,2 63,-2c10,-5 22,-7 26,-6c4,0 17,-3 27,-9c17,-9 20,-21 20,-78c0,-47 3,-63 10,-52c5,8 10,11 10,5c0,-14 49,-35 56,-24c3,5 13,5 25,-1c10,-6 19,-8 19,-5c0,3 11,-2 25,-11c25,-16 34,-44 15,-44c-17,0 -11,-17 18,-48c42,-46 51,-59 45,-66c-11,-11 -10,-61 1,-68c6,-4 11,-17 11,-30c0,-21 4,-23 45,-20c25,1 47,7 48,12c2,6 12,10 23,10c10,0 19,4 19,10c0,5 6,7 14,4c20,-8 56,31 56,59c0,40 -59,144 -107,189c-25,24 -55,53 -67,66c-11,13 -38,33 -59,45c-20,11 -44,31 -52,44c-15,22 -14,24 12,40c15,8 40,32 54,53c24,34 25,39 12,64c-17,32 -14,82 5,79c6,-2 12,6 12,18c0,11 4,18 9,15c5,-4 14,6 19,21c6,16 11,22 11,14c1,-11 5,-10 16,5c12,15 14,16 15,3c0,-22 70,-42 102,-30c32,12 88,77 88,101c0,27 28,130 39,144c5,6 9,52 9,101c0,50 4,101 10,115c7,20 4,37 -15,80c-13,30 -29,58 -36,62c-6,4 -8,10 -4,14c4,4 -3,14 -14,22c-37,25 -76,132 -49,132c20,0 98,-65 104,-85c3,-11 21,-36 39,-55c18,-19 43,-56 55,-81c12,-25 35,-58 51,-72c16,-14 34,-41 41,-61c6,-20 15,-36 20,-36c5,0 13,-15 19,-33c7,-19 25,-47 42,-63l31,-29l-7,36c-7,36 -6,36 21,31c16,-3 36,-15 46,-26c14,-17 17,-18 18,-5c0,19 -33,59 -48,59c-6,0 -22,10 -35,23c-14,12 -36,30 -50,39c-14,10 -32,37 -40,60c-8,24 -18,51 -22,61c-11,26 37,22 85,-8c42,-27 50,-29 50,-17c0,4 -15,16 -32,27c-18,10 -51,37 -74,59c-22,23 -80,77 -128,121c-48,44 -94,92 -102,107c-18,34 -58,78 -71,78c-6,0 -21,12 -34,28c-36,41 -55,53 -73,46c-14,-5 -11,-10 15,-26c31,-19 31,-19 13,-39c-17,-19 -17,-22 -3,-32c21,-16 53,-66 47,-73c-8,-8 -58,49 -58,66c0,5 -28,24 -62,41c-35,16 -76,37 -91,45c-33,18 -121,26 -108,10c10,-13 -4,-56 -19,-56c-5,0 -10,9 -10,20c0,11 -7,20 -15,20c-8,0 -15,9 -15,20c0,11 -5,20 -11,20c-6,0 -9,6 -6,14c8,21 -28,50 -50,41c-10,-5 -23,-7 -30,-6c-6,1 -14,-3 -18,-9c-6,-9 22,-14 70,-12c11,0 14,-2 7,-5c-10,-4 -9,-9 4,-24c9,-10 12,-19 6,-19c-5,0 -8,-10 -5,-22c3,-15 -2,-11 -15,12c-17,31 -25,36 -71,41c-86,11 -87,13 -49,61c43,55 59,86 46,90c-11,4 31,98 44,98c4,0 3,11 -2,25c-8,20 -6,27 5,31c8,4 15,17 15,30c0,16 8,27 21,32c33,13 176,15 184,3c3,-6 15,-11 26,-11c11,0 18,3 15,8c-2,4 32,6 76,5c76,-3 80,-2 75,18c-4,15 -1,19 11,15c40,-11 88,-20 96,-17c6,1 21,0 34,-4c19,-5 21,-9 12,-20c-13,-16 -2,-25 32,-25c79,0 98,2 98,11c0,6 11,8 28,4c16,-3 42,-1 57,5c35,13 24,24 -41,41c-44,11 -50,25 -32,71c5,14 10,41 11,59c2,31 5,33 42,37c22,2 49,3 60,3c11,-1 32,-1 48,-2c17,0 27,-5 27,-14c0,-20 38,-57 51,-50c5,4 18,-4 29,-17c13,-15 19,-18 20,-9c0,8 3,11 7,7c4,-3 12,8 17,26c9,25 17,34 39,36c24,3 40,22 17,22c-5,0 -21,12 -36,27c-26,26 -26,27 -5,34c24,9 54,1 45,-12c-6,-11 47,-79 62,-79c19,0 11,-33 -13,-55c-16,-14 -21,-28 -18,-44c2,-14 0,-30 -6,-38c-7,-7 -9,-27 -5,-43c7,-37 -8,-80 -29,-80c-8,0 -15,-4 -15,-10c0,-5 -10,-10 -22,-10c-23,0 -23,0 3,-24c19,-18 25,-32 22,-49c-8,-42 44,-110 160,-210c27,-23 68,-59 90,-81c23,-21 62,-55 87,-75c24,-20 55,-48 68,-63c13,-15 37,-37 52,-48l29,-21l16,31c18,35 13,81 -11,101c-18,15 -18,45 0,52c8,3 25,3 38,0c19,-4 15,3 -21,34c-35,32 -42,44 -36,62c6,19 11,21 42,15c30,-6 35,-4 31,12c-2,10 -21,30 -42,44c-61,42 -85,103 -31,78c14,-6 28,-8 32,-5c9,10 -37,57 -56,57c-22,1 -71,45 -71,64c0,21 -37,39 -66,32c-36,-9 -76,33 -68,72c5,23 0,35 -20,56c-25,24 -25,31 -3,27c4,-1 17,4 29,10c11,6 18,7 14,1c-3,-5 1,-12 9,-16c16,-6 29,9 21,23c-13,21 24,17 44,-4c25,-26 40,-25 40,4c0,38 93,41 169,6c58,-27 69,-27 53,1c-7,13 -4,23 14,41c13,13 27,35 30,48c3,14 17,28 35,34c16,5 29,15 29,20c0,6 6,11 14,11c7,0 20,7 27,16c13,16 52,15 132,-2c23,-5 27,-3 27,14c0,13 -9,23 -22,28c-13,3 -30,12 -38,19c-8,7 -26,16 -40,21c-39,14 -150,78 -150,87c0,4 9,17 19,29c26,27 11,52 -41,67c-21,7 -36,16 -33,21c3,6 32,-3 63,-19c48,-24 69,-29 127,-28c58,0 79,-4 120,-26c27,-15 60,-27 72,-27c11,0 49,-9 82,-19c57,-18 62,-18 72,-2c9,14 10,14 5,-1c-6,-20 19,-24 44,-8c13,8 11,11 -7,16c-13,4 -20,10 -17,15c3,5 0,9 -5,9c-6,0 -20,9 -30,19c-20,20 -20,20 6,23c15,2 29,9 31,17c3,10 0,12 -11,8c-10,-4 -14,-2 -11,6c2,7 -8,20 -24,29c-47,28 -218,68 -290,68c-50,0 -79,6 -117,24c-54,27 -503,139 -650,163c-49,8 -128,16 -175,18c-128,6 -243,15 -265,22c-16,4 -15,1 8,-21c15,-14 32,-26 37,-26c5,0 26,-10 47,-22l38,-23l-28,-3c-16,-2 -34,1 -41,7c-7,6 -34,14 -60,17c-26,4 -49,10 -51,14c-3,5 4,6 15,3c11,-3 20,0 20,6c0,6 -3,10 -7,10c-5,-1 -24,0 -43,1l-35,3l35,7l35,7l-32,3c-62,6 -68,5 -68,-10c0,-11 -11,-15 -45,-14c-81,3 -265,4 -280,2c-35,-5 -120,14 -120,28c0,19 -47,41 -127,60c-55,13 -99,15 -224,10c-125,-5 -162,-4 -191,8c-19,8 -56,17 -83,21c-69,8 -96,16 -89,26c16,26 -183,52 -213,28c-9,-8 -14,-9 -10,-2c11,17 -11,21 -198,38c-203,18 -196,18 -165,0l25,-14l-37,-1c-29,0 -36,-3 -32,-15c4,-8 18,-15 32,-15c14,0 22,-3 18,-7c-3,-4 6,-13 21,-20l28,-13l-30,6c-16,4 -39,6 -50,6c-11,-1 -48,-2 -83,-2c-34,0 -73,-5 -85,-9c-14,-5 -42,-5 -68,1c-24,5 -54,10 -66,11c-11,1 -19,5 -16,10c2,4 -1,7 -8,7c-6,0 -9,-8 -6,-17c21,-67 22,-63 -14,-57c-52,10 -130,48 -167,83c-18,17 -40,31 -48,31c-8,0 -14,6 -14,13c0,28 -181,79 -196,55c-3,-4 -11,-5 -17,-1c-7,4 -23,9 -37,10c-14,2 -45,8 -70,14c-32,7 -46,7 -48,0c-2,-6 -8,-9 -13,-5c-5,3 -9,0 -9,-5c0,-6 9,-16 20,-23c11,-7 20,-15 20,-18c0,-5 -85,-4 -180,4c-30,2 -64,4 -75,5c-15,1 -17,3 -6,10c8,5 9,11 3,15c-14,8 -256,11 -269,3c-15,-9 -83,31 -83,49c0,10 -13,14 -46,14c-37,0 -47,-4 -51,-19c-3,-13 -11,-17 -24,-14c-10,3 -26,2 -35,-1c-13,-5 -14,-9 -4,-20c9,-12 5,-17 -27,-25c-48,-14 -96,-14 -88,-1c3,6 17,10 30,10c13,0 28,6 32,13c10,15 36,31 95,60c26,12 50,28 53,36c9,23 -35,62 -65,58c-14,-2 -19,-2 -12,0c10,4 9,8 -5,19c-21,16 -37,18 -28,4c10,-16 -7,-12 -27,7c-15,13 -41,17 -141,17c-67,1 -133,-3 -146,-8c-18,-6 -22,-5 -19,5c7,20 -10,49 -28,49c-8,0 -12,-4 -9,-10c10,-15 -33,-12 -59,5c-27,18 -162,29 -192,16zm776,-241c11,-7 7,-10 -17,-10c-18,0 -33,5 -33,10c0,13 30,13 50,0zm-1574,-381c24,-27 12,-33 -16,-9c-13,11 -29,20 -36,20c-7,0 -15,4 -18,8c-10,17 53,-1 70,-19zm6239,-139c3,-6 -1,-7 -9,-4c-18,7 -21,14 -7,14c6,0 13,-4 16,-10zm-190,-170c8,-13 -15,-13 -35,0c-12,8 -11,10 7,10c12,0 25,-4 28,-10zm-3478,-727c40,-93 45,-112 33,-130c-10,-16 -11,-16 -6,0c3,9 1,17 -4,17c-6,0 -10,-9 -10,-20c0,-12 7,-20 18,-20c10,0 13,-3 6,-8c-6,-4 -14,-16 -18,-27c-3,-13 -23,-27 -49,-36c-36,-14 -42,-19 -39,-42c3,-22 -2,-27 -37,-38c-30,-9 -47,-9 -63,-1c-22,10 -22,11 6,11c28,1 66,25 66,43c0,4 9,17 21,29c11,11 18,27 15,35c-3,7 0,17 7,21c33,21 42,100 21,176c-9,28 20,20 33,-10zm-1923,-722c3,-5 -1,-11 -9,-15c-8,-3 -15,-12 -15,-21c0,-8 -7,-15 -15,-15c-10,0 -15,-10 -15,-31c0,-27 -2,-30 -15,-19c-18,15 -20,60 -3,60c6,0 9,3 6,6c-9,9 25,42 44,43c9,1 19,-3 22,-8zm59,2c-7,-2 -19,-2 -25,0c-7,3 -2,5 12,5c14,0 19,-2 13,-5zm137,-13c11,-8 7,-9 -15,-4c-37,8 -45,14 -19,14c10,0 26,-5 34,-10zm60,1c0,-6 -9,-9 -20,-8c-11,1 -20,5 -20,9c0,4 9,8 20,8c11,0 20,-4 20,-9zm-1203,-17c-3,-3 -12,-4 -19,-1c-8,3 -5,6 6,6c11,1 17,-2 13,-5zm-77,-44c0,-5 -5,-10 -11,-10c-5,0 -7,-5 -4,-10c4,-6 15,-8 26,-5c14,5 20,0 25,-19c3,-14 12,-30 20,-37c11,-9 11,-16 -2,-41c-10,-20 -20,-28 -30,-24c-9,3 -22,6 -30,6c-10,0 -14,14 -14,54c0,30 -4,58 -10,61c-6,4 -5,11 3,20c14,17 27,19 27,5zm-35,-50c10,-33 -6,-44 -21,-15c-17,34 -17,35 0,35c8,0 17,-9 21,-20zm-30,-78c-6,-6 -25,45 -24,66c0,9 7,-1 15,-22c8,-22 12,-41 9,-44zm-274,-224c6,-13 25,-36 43,-51c17,-16 25,-26 18,-22c-8,4 -20,-1 -28,-11c-11,-14 -17,-15 -20,-6c-3,6 -15,12 -26,12c-26,0 -47,27 -48,62c0,41 42,52 61,16zm-1241,-1143c0,-8 -4,-15 -10,-15c-5,0 -7,7 -4,15c4,8 8,15 10,15c2,0 4,-7 4,-15zm3850,-755c0,-5 -2,-10 -4,-10c-3,0 -8,5 -11,10c-3,6 -1,10 4,10c6,0 11,-4 11,-10zm-3246,-278c3,-5 -1,-9 -9,-9c-8,0 -12,4 -9,9c3,4 7,8 9,8c2,0 6,-4 9,-8zm4691,-481c3,-5 1,-12 -5,-16c-5,-3 -10,1 -10,9c0,18 6,21 15,7zm210,-91c10,-11 13,-20 7,-20c-6,0 -16,9 -22,20c-6,11 -9,20 -7,20c2,0 12,-9 22,-20z" id="svg_6"/>
   <path d="m5832.04199,13436.80733c0,-17 29,-33 48,-27c13,4 22,1 26,-9c4,-10 -1,-15 -15,-15c-12,0 -17,-4 -13,-11c3,-6 16,-8 29,-5c12,3 60,1 105,-5c82,-10 108,-6 80,11c-25,16 -116,40 -152,40c-18,0 -42,7 -52,15c-22,16 -56,20 -56,6z" id="svg_7"/>
   <path d="m8052.04199,11169.80733c0,-8 -4,-12 -10,-9c-5,3 -10,1 -10,-5c0,-7 6,-10 14,-7c25,10 91,-87 80,-118c-3,-7 -1,-16 5,-20c22,-13 10,-23 -18,-15c-37,10 -46,2 -25,-21c14,-16 15,-19 2,-24c-9,-4 -15,-19 -15,-38c0,-18 2,-26 4,-20c7,19 50,-13 57,-43c7,-27 33,-32 42,-9c4,8 12,15 20,15c27,0 14,19 -26,36c-22,10 -40,21 -40,26c0,11 14,10 27,-3c8,-8 16,-7 31,2c16,10 29,9 75,-10c31,-13 61,-20 68,-15c8,4 9,3 5,-4c-4,-7 -2,-12 4,-12c8,0 10,9 6,24c-9,38 3,56 38,56c33,1 66,20 66,38c0,6 -7,9 -16,5c-12,-5 -15,2 -13,40c2,32 6,44 16,40c7,-3 13,-1 13,5c0,5 -9,12 -20,15c-17,4 -21,-1 -26,-34c-7,-41 -24,-44 -24,-3c0,29 -16,32 -25,4c-6,-19 -8,-19 -78,7c-65,23 -113,47 -127,63c-10,12 -78,50 -89,50c-6,0 -11,-7 -11,-16z" id="svg_8"/>
   <path d="m8202.04199,10830.80733c0,-9 -5,-13 -11,-9c-8,5 -10,-1 -5,-19c3,-15 1,-29 -5,-32c-7,-5 -5,-13 6,-25c8,-9 13,-24 9,-34c-4,-11 -1,-16 10,-16c8,0 20,-9 26,-20c16,-31 19,-123 4,-140c-13,-15 -14,-19 -14,-45c0,-9 -12,-21 -27,-28c-16,-6 -31,-16 -35,-22c-11,-14 -29,16 -22,37c7,22 -7,29 -28,14c-14,-10 -14,-15 -2,-36c7,-14 13,-19 14,-11c0,8 2,12 5,9c6,-6 -18,-58 -27,-58c-12,0 -10,-38 2,-42c6,-2 6,-9 0,-17c-7,-12 -11,-12 -24,-2c-12,10 -26,11 -65,1c-27,-6 -60,-11 -73,-10c-42,4 -58,0 -58,-12c0,-17 -50,-73 -72,-81c-10,-3 -18,-15 -18,-26c0,-11 -6,-25 -12,-31c-7,-6 -23,-19 -36,-29l-23,-20l27,-30c15,-17 31,-28 37,-24c6,3 7,2 4,-4c-4,-5 6,-28 21,-49c15,-21 27,-46 27,-54c0,-8 10,-16 23,-18c12,-2 22,-9 22,-15c0,-7 10,-1 23,13c19,21 22,35 20,90c-1,37 -2,70 -4,75c-4,25 3,24 32,-4c33,-33 65,-42 55,-15c-8,20 11,54 29,54c8,0 15,-4 15,-10c0,-19 15,-10 27,16c6,14 10,31 7,39c-3,7 -1,16 5,20c6,3 11,0 11,-8c0,-18 40,-54 64,-59c15,-2 21,5 28,30c5,18 15,32 23,32c22,0 18,28 -5,35c-11,3 -20,10 -20,15c0,4 9,6 20,3c11,-3 20,-8 20,-12c0,-3 20,-6 45,-6c41,0 45,2 45,25l1,25l15,-28c17,-32 38,-26 31,9c-5,28 14,32 37,8c15,-14 17,-14 32,0c8,9 12,21 9,26c-4,6 -2,17 4,24c8,10 6,19 -9,36c-11,13 -21,32 -21,44c-1,12 -3,28 -4,36c-1,8 -3,22 -4,31c0,9 -10,26 -21,39c-11,13 -20,29 -20,37c0,10 6,12 20,8c11,-4 20,-2 20,4c0,6 -4,11 -10,11c-5,0 -10,22 -10,49c0,47 -3,53 -65,117c-36,37 -65,74 -65,81c0,7 -6,13 -14,13c-8,0 -21,3 -30,6c-11,4 -16,1 -16,-11zm50,-29c0,-2 -7,-6 -15,-10c-8,-3 -15,-1 -15,4c0,6 7,10 15,10c8,0 15,-2 15,-4zm-183,-561c8,-22 0,-27 -31,-19c-21,5 -24,9 -15,20c15,19 38,18 46,-1zm-73,-30c-7,-17 -30,-20 -39,-6c-4,8 9,15 37,20c4,0 5,-6 2,-14zm-87,-17c-3,-8 -6,-5 -6,6c-1,11 2,17 5,13c3,-3 4,-12 1,-19zm29,-5c-7,-27 -31,-53 -48,-53c-4,0 -7,6 -5,13c1,7 -11,13 -30,15c-18,2 -33,8 -33,14c0,7 17,8 49,4c44,-6 50,-4 56,14c10,30 18,24 11,-7z" id="svg_9"/>
   <path d="m796.04199,10330.80733c-10,-8 -36,-15 -56,-15c-21,0 -38,-4 -38,-10c0,-5 -9,-10 -21,-10c-30,0 -20,-32 15,-48c25,-13 31,-12 57,7c15,12 33,21 38,21c6,0 8,6 5,14c-3,9 3,20 15,28c21,13 28,28 13,28c-5,0 -17,-7 -28,-15z" id="svg_10"/>
   <path d="m7385.04199,8853.80733c-9,-14 -7,-158 2,-192c6,-19 5,-20 -8,-3c-32,39 -36,7 -10,-74c17,-52 43,-89 63,-89c6,0 10,8 10,17c0,9 3,13 7,10c3,-4 1,-18 -7,-31c-14,-26 -7,-61 10,-51c5,3 10,1 10,-4c0,-17 -30,-13 -36,4c-4,8 -13,15 -21,15c-10,0 -6,-11 15,-37c16,-21 37,-52 46,-70c21,-42 36,-50 52,-28c17,22 8,64 -16,86c-18,16 -18,17 5,29c25,14 58,4 34,-10c-10,-7 -10,-12 1,-25c13,-16 15,-16 26,0c11,15 13,15 22,-2c6,-10 14,-14 18,-10c5,4 2,17 -5,28c-23,38 -5,29 41,-20c42,-45 49,-61 26,-61c-4,0 -7,3 -6,8c3,10 -25,52 -34,52c-14,0 -8,-31 7,-36c10,-4 15,-20 15,-48c0,-27 3,-36 9,-27c7,11 13,11 32,-3c35,-24 41,-20 23,15c-9,19 -12,34 -6,38c5,3 11,18 14,33c4,22 0,29 -23,39c-31,12 -39,29 -14,29c8,0 15,-4 15,-10c0,-12 10,-13 29,-1c10,7 11,13 2,30c-14,24 -31,28 -31,6c0,-14 -3,-14 -30,0c-17,9 -34,13 -39,10c-5,-2 -12,2 -15,11c-5,13 -15,15 -50,10c-34,-5 -45,-4 -49,9c-6,14 5,19 41,18c6,-1 12,2 12,5c0,10 -35,31 -52,32c-20,0 -25,14 -20,52c3,18 10,28 22,28c25,0 36,84 14,117c-8,13 -16,42 -16,64c0,39 -1,39 -33,33c-19,-3 -35,-1 -39,5c-10,15 -53,14 -63,-1z" id="svg_11"/>
   <path d="m7732.04199,8324.80733c0,-10 13,-28 29,-40c17,-12 27,-27 24,-36c-4,-11 -8,-10 -18,4c-19,25 -27,11 -20,-31c4,-21 13,-36 21,-36c9,0 14,-11 14,-29c0,-22 7,-31 28,-40c16,-7 29,-17 29,-24c0,-7 3,-22 7,-33c5,-18 3,-21 -19,-21c-14,0 -25,3 -25,8c0,5 -4,9 -10,9c-5,0 -7,-13 -3,-32c5,-23 3,-29 -6,-24c-8,5 -14,0 -18,-13c-7,-26 -11,-26 -33,1c-15,20 -21,21 -44,10c-14,-6 -26,-18 -26,-27c0,-9 -9,-15 -25,-15c-14,0 -27,-6 -29,-12c-2,-7 -7,-27 -13,-43c-5,-17 -8,-36 -5,-43c6,-18 32,-14 32,6c0,9 7,26 15,36c15,19 15,19 15,-2c0,-23 14,-30 25,-12c3,5 12,7 20,3c10,-3 15,2 15,16c0,18 3,20 19,11c16,-8 20,-20 19,-62c-1,-45 2,-54 27,-74c16,-13 38,-24 50,-26c12,-2 21,-12 23,-26c4,-24 26,-25 28,-1c0,8 4,22 8,32c5,11 3,29 -5,45c-18,36 -17,45 4,48c10,1 17,-4 17,-15c0,-9 7,-26 15,-37c13,-18 14,-17 15,18c0,20 5,40 10,43c6,3 10,15 10,27c0,37 -43,178 -52,172c-6,-4 -6,10 -2,32c6,33 5,36 -11,31c-12,-5 -18,-1 -22,13c-6,23 -23,27 -23,5c0,-8 -7,-15 -16,-15c-12,0 -14,4 -6,13c5,7 6,21 1,32c-13,33 -10,37 21,33l29,-4l-19,31c-11,18 -20,43 -20,56c0,38 -16,53 -59,55c-34,2 -41,-1 -41,-17z" id="svg_12"/>
   <path d="m7552.04199,8276.80733c0,-6 5,-13 10,-16c7,-4 9,-30 7,-61c-4,-56 0,-63 22,-41c10,9 15,9 18,0c2,-7 11,-9 19,-6c21,8 17,-20 -6,-40c-17,-14 -18,-20 -8,-37c7,-11 18,-20 24,-20c7,0 14,-7 18,-15c9,-25 24,-17 36,20c6,19 16,35 21,35c6,0 7,-4 4,-10c-7,-11 24,-13 49,-4c24,9 19,39 -9,54c-20,11 -25,21 -25,52c0,31 -3,38 -20,38c-11,0 -20,-4 -20,-10c0,-5 -8,-10 -19,-10c-14,0 -17,6 -13,25c4,21 0,25 -19,25c-13,1 -35,7 -49,15c-30,17 -40,18 -40,6zm157,-93c-3,-8 -6,-5 -6,6c-1,11 2,17 5,13c3,-3 4,-12 1,-19zm-7,-73c0,-5 -5,-3 -10,5c-5,8 -10,20 -10,25c0,6 5,3 10,-5c5,-8 10,-19 10,-25zm17,3c-3,-8 -6,-5 -6,6c-1,11 2,17 5,13c3,-3 4,-12 1,-19zm-40,-20c-3,-8 -6,-5 -6,6c-1,11 2,17 5,13c3,-3 4,-12 1,-19z" id="svg_13"/>
   <path d="m7366.04199,8205.80733c-4,-19 -15,-47 -26,-62c-11,-16 -16,-33 -13,-38c4,-6 3,-9 -2,-8c-12,4 -90,-76 -98,-101c-4,-13 -2,-28 4,-34c8,-8 11,-8 11,0c0,5 23,33 50,61c28,28 50,55 50,61c0,16 43,58 64,62c27,5 31,25 6,32c-14,3 -20,13 -20,32c0,15 4,24 10,20c6,-3 10,-2 10,4c0,5 -9,9 -20,8c-14,-1 -22,-11 -26,-37z" id="svg_14"/>
   <path d="m4376.04199,8093.80733c-4,-6 -2,-14 4,-16c7,-2 12,-12 12,-23c0,-12 -5,-16 -15,-13c-8,4 -15,1 -15,-5c0,-6 5,-11 10,-11c13,0 13,-43 1,-55c-8,-9 10,-146 24,-183c9,-23 48,-31 80,-15c52,26 65,43 65,86c0,41 -40,136 -66,158c-8,6 -14,17 -14,23c0,15 -52,66 -67,66c-7,0 -15,-5 -19,-12z" id="svg_15"/>
   <path d="m7215.04199,7887.80733c-5,-4 -16,-24 -24,-44c-7,-21 -17,-38 -22,-38c-4,0 -13,-13 -18,-29c-6,-16 -22,-37 -35,-46c-20,-13 -23,-19 -13,-31c9,-12 7,-14 -15,-14c-15,0 -34,-7 -42,-15c-9,-8 -24,-15 -35,-15c-13,0 -19,-7 -19,-21c0,-12 -18,-43 -40,-69c-33,-40 -47,-49 -85,-54c-24,-4 -47,-11 -50,-17c-4,-5 -11,-7 -16,-4c-8,5 -14,-32 -10,-58c1,-4 -3,-17 -9,-28c-9,-16 -14,-18 -33,-7c-12,7 -30,11 -40,9c-9,-1 -20,5 -23,13c-9,22 -37,4 -56,-35c-17,-33 -16,-70 0,-156c14,-71 27,-92 52,-86c17,5 20,1 19,-28c0,-19 3,-55 6,-81c8,-50 7,-49 83,-48c35,0 42,-3 42,-19c0,-23 16,-36 25,-21c4,6 14,8 24,5c10,-3 27,4 39,15c12,12 22,16 22,10c0,-5 7,-10 15,-10c8,0 15,-5 15,-11c0,-7 9,-9 21,-6c33,9 49,-3 49,-34c0,-35 6,-36 61,-4l44,24l12,-22c11,-22 12,-22 23,7c6,16 8,37 5,47c-4,10 2,35 11,56c12,24 14,38 7,40c-19,7 -2,47 34,81c19,17 38,32 44,32c5,0 7,22 3,53c-7,67 9,92 59,89c54,-4 57,16 8,59c-34,29 -42,41 -36,58c4,14 -1,31 -14,50c-18,25 -20,33 -9,56c8,19 8,29 0,37c-14,14 5,34 42,44c36,9 42,22 11,30c-30,7 -33,24 -4,24c25,0 59,17 59,31c0,5 -10,14 -22,19c-29,13 -61,33 -69,43c-3,4 -12,7 -20,5c-9,-2 -13,4 -11,17c1,12 -8,30 -23,43c-13,12 -22,28 -19,36c6,17 -7,28 -23,18z" id="svg_16"/>
   <path d="m5567.04199,7735.80733c-20,-32 11,-76 128,-186c34,-32 57,-63 57,-77c0,-7 20,-27 45,-45c25,-17 44,-35 43,-39c-5,-21 34,-122 50,-128c28,-9 102,-142 108,-192c2,-24 32,-68 77,-113c15,-15 27,-31 27,-36c0,-4 40,-47 89,-95c88,-87 90,-88 121,-77c25,8 35,8 46,-4c12,-12 13,-20 3,-41c-13,-28 -29,-36 -29,-15c0,15 -13,1 -16,-17c-2,-11 8,-15 36,-15c34,0 70,-22 62,-39c-1,-3 14,-9 35,-14c21,-4 47,-11 58,-16c35,-16 53,-20 59,-13c12,12 90,0 127,-18c38,-20 188,-43 214,-34c8,4 15,1 15,-6c0,-6 6,-10 13,-7c6,2 26,-2 44,-10c44,-18 55,-17 48,6c-5,16 -2,18 15,14c12,-3 20,-14 20,-27c1,-21 1,-21 15,-2c8,11 15,15 15,8c0,-6 17,-14 38,-17c20,-4 47,-10 58,-15c14,-5 40,-4 70,5c27,7 43,14 35,14c-8,1 -11,4 -8,7c4,4 12,3 19,-3c20,-15 55,-13 69,3c9,11 15,11 25,3c23,-19 163,-20 224,-2c30,9 61,15 68,14c8,-1 19,2 26,8c6,5 18,6 25,2c13,-8 77,1 88,13c16,16 -10,19 -102,13c-27,-2 -53,2 -58,7c-5,7 -15,1 -28,-17c-11,-15 -25,-24 -31,-21c-13,8 -71,16 -131,18c-33,0 -51,-4 -57,-14c-7,-11 -10,-12 -10,-2c0,9 -7,11 -19,7c-11,-3 -22,-1 -26,5c-3,5 -1,10 5,10c6,0 8,5 4,11c-5,8 -8,8 -13,0c-8,-12 -45,-10 -57,2c-13,13 -55,7 -61,-9c-3,-8 -11,-13 -19,-10c-7,3 -14,0 -17,-7c-2,-8 -9,-6 -21,6c-22,22 -38,18 -51,-11c-5,-12 -15,-22 -22,-22c-16,0 -17,16 -2,25c15,10 -28,38 -46,31c-21,-8 -45,3 -45,20c0,15 -2,16 -70,18c-33,1 -45,5 -48,18c-2,13 2,16 17,13c28,-5 83,14 78,28c-2,6 -31,9 -74,8c-48,-2 -81,3 -101,13c-16,8 -32,12 -36,9c-3,-4 -12,2 -20,12c-13,18 -14,17 -30,-8c-13,-19 -24,-25 -44,-22c-15,1 -45,3 -67,4c-31,1 -43,6 -50,23c-6,12 -20,23 -33,25c-13,2 -37,10 -55,19c-19,11 -32,13 -35,6c-2,-7 -14,-7 -34,-1c-17,4 -35,6 -40,3c-5,-4 -7,8 -3,28c3,18 7,67 10,108c5,102 12,122 36,109c22,-11 59,4 59,24c0,8 -3,8 -9,-2c-6,-9 -11,-10 -15,-2c-4,6 -5,15 -2,20c3,5 -3,11 -14,14c-20,5 -24,11 -34,60c-8,33 -27,34 -60,4c-27,-25 -25,-37 6,-37c10,0 18,-5 18,-11c0,-7 -9,-9 -22,-5c-13,3 -26,6 -30,6c-5,0 -8,5 -8,11c0,6 -7,17 -15,25c-8,9 -15,29 -15,45c0,24 -4,29 -23,29c-13,0 -32,6 -42,14c-17,12 -18,16 -5,31c20,24 23,60 6,74c-8,7 -12,20 -9,28c5,12 2,15 -10,10c-11,-4 -17,-1 -17,8c0,8 -11,17 -25,21c-14,3 -25,12 -25,20c0,13 -5,16 -40,18c-8,1 -15,10 -15,21c0,12 -8,21 -20,23c-11,2 -25,8 -31,13c-5,4 -19,6 -31,3c-15,-4 -23,0 -28,15c-3,12 -11,21 -16,21c-5,0 -9,5 -9,11c0,13 -15,28 -60,59c-19,13 -41,30 -48,37c-7,7 -18,13 -23,13c-5,0 -9,7 -9,15c0,9 -5,21 -10,28c-6,7 -19,23 -30,36c-16,19 -29,23 -69,23c-35,0 -57,6 -72,19c-24,21 -45,24 -54,9zm1725,-1226c0,-2 -7,-4 -15,-4c-8,0 -15,4 -15,10c0,5 7,7 15,4c8,-4 15,-8 15,-10z" id="svg_17"/>
   <path d="m3842.04199,7586.80733c0,-17 4,-32 10,-36c5,-3 7,-12 4,-19c-3,-8 -1,-17 5,-21c6,-3 11,-12 11,-18c0,-7 -4,-6 -11,3c-9,12 -10,12 -5,-3c3,-10 6,-27 6,-38c0,-23 23,-25 40,-3c11,13 10,16 -8,21c-12,3 -19,10 -16,15c10,16 -6,79 -18,72c-7,-5 -9,4 -6,25c2,17 1,31 -4,31c-4,0 -8,-13 -8,-29zm50,-131c0,-5 -4,-10 -10,-10c-5,0 -10,5 -10,10c0,6 5,10 10,10c6,0 10,-4 10,-10z" id="svg_18"/>
   <path d="m8052.04199,7419.80733c-8,-14 -14,-43 -15,-65c0,-21 -4,-39 -10,-39c-5,0 -3,-5 5,-11c10,-7 11,-12 4,-15c-7,-3 -9,-15 -6,-26c5,-21 6,-21 13,-2c6,16 8,14 8,-10c1,-24 -2,-27 -19,-23c-24,6 -34,-6 -25,-32c7,-25 65,-35 65,-12c1,13 2,13 11,-2c20,-34 26,-7 8,31c-26,52 -18,74 22,60c40,-14 45,-6 15,23c-24,23 -24,24 -5,37c18,13 27,62 11,62c-4,0 -18,-7 -30,-16c-22,-15 -22,-14 -22,25c0,47 -11,52 -30,15z" id="svg_19"/>
   <path d="m7808.04199,7365.80733c-23,-24 -45,-39 -55,-36c-9,3 -51,8 -93,12c-43,3 -78,10 -78,14c0,10 -36,19 -47,11c-5,-3 -12,-14 -16,-24c-4,-10 -12,-15 -17,-12c-14,9 -50,-32 -50,-57c0,-10 -4,-18 -8,-18c-5,0 -7,-13 -4,-29c2,-17 -3,-39 -12,-53c-9,-12 -16,-37 -16,-54c0,-34 -26,-94 -41,-94c-5,0 -8,-12 -5,-27c2,-16 5,-35 5,-44c1,-11 8,-15 24,-12c20,4 23,0 25,-33c2,-21 -2,-60 -9,-87c-14,-58 -6,-69 42,-61c32,6 35,9 36,42c2,157 8,202 26,208c27,9 33,-3 19,-38c-11,-29 -9,-34 17,-57c21,-20 26,-31 21,-46c-8,-21 5,-45 24,-45c6,0 19,9 29,20c9,11 22,20 28,20c8,0 7,-6 -3,-17c-25,-29 -28,-60 -7,-79c18,-16 20,-16 39,1c12,11 18,25 15,36c-3,9 -2,20 2,22c4,3 8,22 8,44c-1,31 -4,37 -19,35c-22,-4 -45,25 -39,49c3,10 -9,41 -26,70c-25,40 -29,54 -20,65c6,8 18,14 25,14c7,0 24,14 36,31c17,23 28,29 45,24c18,-4 23,-1 23,15c0,27 -25,36 -56,20c-13,-7 -40,-14 -60,-14c-25,-1 -42,-9 -55,-25c-18,-22 -49,-23 -49,-1c0,5 -9,19 -21,31c-16,16 -20,28 -15,52c10,51 19,54 146,45c170,-11 200,-10 200,13c0,6 11,25 25,43c15,20 23,40 19,50c-9,23 -14,21 -58,-24z" id="svg_20"/>
   <path d="m8117.04199,7007.80733c-16,-2 -33,-9 -37,-15c-6,-9 -8,-9 -8,0c0,9 -7,7 -20,-4c-24,-20 -26,-38 -5,-29c11,4 15,-1 15,-18c0,-23 2,-24 35,-13c19,6 35,17 35,24c0,11 4,11 20,3c12,-6 29,-8 39,-5c11,3 34,-3 53,-15c42,-26 48,-25 48,3c0,51 -75,80 -175,69z" id="svg_21"/>
   <path d="m7961.04199,6531.80733c-2,-2 -31,-7 -64,-11c-42,-4 -65,-12 -75,-25c-8,-11 -36,-28 -62,-40c-29,-13 -49,-29 -54,-43c-3,-12 -13,-29 -21,-39c-11,-12 -11,-18 -3,-23c21,-13 87,17 123,54c20,21 54,43 79,51c56,18 120,58 113,70c-6,10 -28,13 -36,6z" id="svg_22"/>
  </g>
 </g>
</svg>