<svg width="100" height="71" xmlns="http://www.w3.org/2000/svg" version="1.0" preserveAspectRatio="xMidYMid meet">
 <metadata>Created by potrace 1.7, written by Peter Selinger
  2001-2005</metadata>

 <g>
  <title>Layer 1</title>
  <g transform="translate(0 239) scale(0.016963 -0.016963)" fill="#000000" id="svg_27">
   <path d="m4392.48884,13788.90361c-4,-5 -25,-12 -49,-16c-42,-7 -127,-43 -138,-59c-4,-5 -12,-5 -18,-2c-6,4 -11,2 -11,-3c0,-6 6,-12 13,-12c6,-1 23,-3 35,-4c14,-1 33,7 44,19c12,11 18,16 15,10c-4,-7 3,-14 16,-18c31,-8 39,-7 32,4c-3,6 1,7 9,4c9,-3 13,-11 9,-17c-4,-7 20,-8 78,-4c50,3 76,2 64,-3c-16,-7 -11,-9 21,-9c29,-1 44,4 48,14c3,8 14,15 25,15c26,0 51,10 51,21c0,5 -9,9 -19,9c-11,0 -21,4 -23,10c-3,8 -68,18 -132,20c-15,0 -16,3 -6,15c11,13 7,15 -23,15c-20,0 -38,-4 -41,-9zm119,-51c-10,-11 -30,-20 -44,-19l-26,1l25,8c14,4 18,9 10,10c-8,1 -4,6 10,10c40,13 44,11 25,-10zm-255,-14c0,-3 -4,-8 -10,-11c-5,-3 -10,-1 -10,4c0,6 5,11 10,11c6,0 10,-2 10,-4z" id="svg_28"/>
   <path d="m4048.48884,13743.90361c-18,-6 -30,-15 -26,-19c4,-4 2,-7 -4,-7c-7,0 -12,5 -12,10c0,12 -72,12 -145,0c-50,-7 -36,-13 32,-13c18,0 30,-4 27,-9c-3,-4 -4,-8 -2,-9c53,-9 119,-9 114,0c-5,7 2,11 16,11c16,0 19,-3 10,-9c-16,-9 30,-21 82,-21c24,0 28,3 16,10c-8,6 -28,7 -45,4c-27,-6 -28,-5 -16,10c7,9 22,16 33,16c10,0 16,5 13,10c-3,6 -15,10 -26,10c-10,0 -19,5 -19,10c0,12 -6,12 -48,-4z" id="svg_29"/>
   <path d="m2556.48884,13699.90361c-9,-10 -25,-12 -52,-8c-30,5 -40,3 -45,-10c-3,-9 0,-20 8,-25c8,-5 9,-9 3,-9c-6,0 -17,7 -25,16c-7,9 -22,14 -36,11c-13,-2 -25,-1 -28,3c-2,4 -30,5 -62,4c-32,-2 -70,-3 -85,-4c-22,0 -26,-4 -21,-17c4,-10 18,-29 32,-42l26,-24l-27,16c-16,10 -29,13 -33,7c-3,-5 13,-18 37,-30c50,-24 54,-25 38,-5c-24,29 51,-18 78,-47c13,-16 31,-28 40,-28c10,-1 35,-9 57,-20c59,-29 82,-26 90,10c4,17 13,30 20,30c15,0 73,50 59,50c-5,0 -1,5 9,11c20,12 52,4 85,-22c21,-16 22,-18 5,-28c-20,-12 -13,-14 33,-11c18,1 35,-3 39,-9c7,-12 53,-5 70,10c5,5 17,9 28,9c10,0 15,5 12,10c-3,6 -19,10 -35,10c-16,0 -30,7 -34,16c-4,11 -14,15 -31,12c-14,-3 -25,-1 -25,3c0,14 -91,51 -108,44c-13,-5 -14,-3 -5,6c8,8 31,9 75,5c107,-12 199,-6 206,14c2,6 12,10 22,10c26,0 34,17 13,28c-29,15 -151,21 -158,8c-3,-8 -7,-7 -11,2c-9,18 -54,15 -54,-4c0,-13 -3,-14 -15,-4c-21,18 -178,19 -195,2zm88,-50c3,-9 -2,-13 -14,-10c-9,1 -19,9 -22,16c-3,9 2,13 14,10c9,-1 19,-9 22,-16zm-198,-67c0,-3 -8,-5 -18,-5c-10,0 -19,7 -19,14c0,11 5,13 19,5c10,-5 18,-12 18,-14zm-70,-25c0,-5 -4,-10 -10,-10c-5,0 -10,5 -10,10c0,6 5,10 10,10c6,0 10,-4 10,-10z" id="svg_30"/>
   <path d="m5027.48884,13500.90361c-14,-3 -35,-12 -48,-20c-16,-11 -65,-18 -149,-24c-120,-8 -163,-15 -174,-28c-11,-14 -86,-44 -103,-42c-13,2 -18,-3 -16,-16c5,-32 -11,-59 -44,-75l-32,-16l25,-10c15,-7 19,-11 9,-11c-9,-1 -29,-12 -45,-26c-23,-19 -25,-25 -11,-25c25,0 21,-19 -8,-30c-14,-5 -25,-16 -25,-24c0,-21 27,-39 50,-33c11,3 18,1 14,-4c-3,-5 7,-14 22,-19c21,-8 29,-8 36,2c6,10 8,9 8,-3c0,-22 21,-29 100,-36c120,-9 133,-9 138,6c3,10 0,12 -12,8c-9,-4 -15,-3 -12,2c3,4 -13,14 -34,21c-22,7 -40,16 -40,19c0,4 -12,14 -28,23c-27,16 -44,68 -22,68c6,0 10,5 10,10c0,14 105,120 119,120c6,0 19,8 29,18c23,23 66,36 197,62c174,35 209,57 127,80c-38,10 -41,10 -81,3zm-514,-219c-3,-3 -12,-4 -19,-1c-8,3 -5,6 6,6c11,1 17,-2 13,-5z" id="svg_31"/>
   <path d="m3021.48884,13096.90361c-4,-6 -14,-8 -23,-4c-8,3 -26,-4 -40,-17c-14,-13 -22,-17 -18,-10c5,8 -2,12 -26,12c-43,0 -79,-10 -73,-20c6,-10 -43,-24 -74,-21c-17,2 -21,-1 -16,-11c6,-10 5,-11 -6,0c-24,22 -89,12 -89,-14c0,-15 -1,-15 -37,-19c-41,-4 -55,-14 -50,-35c3,-11 0,-23 -5,-27c-7,-4 -8,-1 -3,7c6,10 2,11 -20,6c-25,-6 -27,-5 -16,8c19,22 0,21 -53,-5c-33,-15 -43,-25 -39,-36c4,-11 2,-14 -5,-9c-14,8 -82,-19 -82,-33c0,-14 4,-14 45,3c19,8 35,13 35,11c0,-2 14,0 30,5c18,5 30,5 30,-1c0,-5 -7,-9 -15,-9c-8,0 -15,-9 -15,-19c0,-11 -20,-34 -50,-55c-27,-20 -50,-40 -50,-45c0,-5 -9,-11 -20,-14c-14,-3 -20,-14 -20,-31c0,-34 -33,-66 -67,-66c-23,0 -25,-2 -13,-11c12,-9 13,-11 1,-16c-7,-3 -31,-23 -52,-44c-35,-35 -41,-38 -60,-27c-17,11 -22,10 -32,-3c-7,-9 -18,-14 -26,-11c-10,3 -12,0 -8,-11c4,-11 -2,-17 -24,-22c-16,-4 -29,-11 -29,-16c0,-5 -11,-11 -25,-15c-14,-3 -25,-10 -25,-16c0,-5 -4,-7 -8,-4c-5,3 -22,-3 -39,-14c-30,-18 -31,-21 -32,-94c-1,-63 2,-74 14,-70c16,6 21,-11 7,-20c-12,-7 -13,-66 -1,-66c5,0 9,-9 9,-20c0,-12 15,-29 40,-45c52,-33 106,-33 151,0c19,13 53,34 77,46c23,12 42,29 43,38c0,13 2,14 6,1c3,-8 12,-19 19,-23c8,-4 14,-20 14,-35c0,-15 9,-38 20,-52c11,-14 20,-29 20,-33c0,-5 16,-25 35,-45c19,-20 30,-38 25,-40c-6,-2 -10,-10 -10,-18c0,-8 -3,-13 -7,-13c-16,3 -73,-14 -73,-21c0,-10 -59,-24 -67,-17c-2,3 0,14 6,24c10,17 10,17 11,0c0,-10 5,-15 10,-12c6,4 8,10 5,15c-3,5 -1,11 5,15c18,11 11,35 -10,35c-20,0 -28,24 -11,35c12,7 11,65 -1,65c-4,0 -8,-4 -8,-10c0,-5 -6,-10 -14,-10c-7,0 -19,-7 -26,-15c-7,-8 -25,-15 -41,-15c-54,0 -91,-107 -51,-148c14,-16 15,-29 2,-37c-5,-3 -7,-12 -3,-21c4,-11 9,-12 19,-3c11,9 14,8 14,-5c0,-9 -5,-16 -11,-16c-8,0 -8,-5 1,-15c22,-26 -5,-46 -51,-39c-26,5 -46,2 -61,-8c-14,-9 -36,-13 -54,-11c-47,7 -90,-19 -98,-60c-10,-53 -76,-113 -151,-138c-44,-14 -51,-20 -58,-52c-8,-32 -14,-38 -48,-47c-22,-6 -45,-20 -52,-30c-14,-23 -49,-26 -69,-7c-7,8 -26,17 -42,21c-26,6 -28,5 -21,-16c21,-68 19,-73 -22,-73c-21,0 -43,4 -50,8c-13,8 -89,-1 -113,-14c-19,-9 -21,-59 -3,-59c7,0 13,-4 13,-10c0,-5 6,-7 13,-4c23,9 67,-14 61,-31c-3,-8 -1,-15 6,-15c6,0 8,5 5,10c-11,18 25,10 47,-10c13,-11 16,-20 9,-20c-9,0 -8,-5 3,-16c9,-8 16,-20 16,-25c0,-5 7,-9 16,-9c8,0 12,-4 9,-10c-3,-5 -2,-10 3,-10c5,0 9,-6 9,-12c0,-7 2,-17 4,-23c4,-14 -10,-114 -22,-153c-12,-36 -40,-56 -69,-47c-17,5 -151,15 -277,19c-29,1 -55,5 -59,9c-14,14 -51,7 -69,-13c-10,-11 -26,-20 -35,-20c-28,0 -42,-24 -31,-53c5,-13 11,-55 12,-93c3,-73 -20,-157 -50,-181c-8,-7 -12,-13 -9,-13c4,0 3,-13 -2,-30c-5,-18 -5,-30 1,-30c5,0 9,-7 9,-15c0,-8 6,-14 13,-12c13,2 15,-49 3,-93c-7,-24 -5,-25 36,-24c24,0 53,4 66,8c36,12 62,-3 79,-45c17,-44 55,-62 76,-36c22,27 81,46 142,47c33,0 68,0 78,1c9,0 24,14 32,30c11,20 26,32 46,36c23,4 34,15 46,44c8,22 21,39 28,39c7,0 18,7 25,15c11,13 10,18 -2,28c-24,19 -27,42 -10,69c36,53 97,118 111,118c8,0 38,12 67,27c54,27 84,67 64,87c-5,5 -10,20 -10,32c0,49 106,67 167,28c33,-21 56,-17 92,15c19,17 46,33 62,36c16,4 34,15 39,25c5,10 16,20 24,23c21,8 106,-31 106,-49c0,-8 6,-23 13,-35c10,-17 9,-22 -6,-34c-13,-9 -15,-15 -6,-20c6,-4 15,-2 19,6c7,10 11,10 24,0c9,-8 16,-20 16,-27c0,-8 9,-14 20,-14c11,0 20,-3 20,-8c0,-15 100,-86 123,-87c13,0 35,-12 49,-27c14,-16 33,-28 42,-28c9,0 16,-7 16,-16c0,-9 13,-21 30,-27c22,-8 33,-22 45,-57c10,-28 12,-46 5,-48c-5,-2 -10,-12 -10,-21c0,-23 -92,-44 -164,-37c-59,5 -76,0 -76,-24c0,-17 90,-70 118,-70c6,0 15,-6 19,-13c4,-8 18,-16 31,-20c25,-6 46,21 36,47c-3,9 -3,28 0,42c5,20 11,24 27,19c25,-8 69,29 69,58c0,10 9,21 20,24c28,7 26,45 -5,63c-22,14 -23,18 -12,40c10,20 19,24 42,22c17,-2 32,-8 33,-13c2,-5 11,-17 20,-25c15,-15 17,-15 26,5c13,30 -17,60 -104,102c-59,28 -67,36 -59,51c5,10 6,18 2,19c-4,0 -27,1 -50,3c-34,2 -50,10 -78,39c-19,20 -35,44 -35,54c-1,25 -18,45 -62,71c-41,25 -56,55 -38,77c7,9 8,15 0,20c-20,12 -10,31 23,43c40,14 69,16 49,4c-9,-6 -10,-16 -3,-34c12,-33 31,-45 42,-27c6,11 9,8 9,-8c0,-12 5,-25 10,-28c6,-3 10,3 10,14c0,11 5,23 12,27c8,5 9,2 5,-10c-4,-10 -1,-24 9,-33c11,-12 12,-18 4,-23c-13,-8 34,-50 56,-50c8,0 22,-9 31,-20c10,-11 29,-20 43,-21l25,-1l-25,-8c-24,-8 -24,-8 7,-9c17,-1 35,-5 38,-11c3,-5 14,-10 24,-10c9,0 40,-17 68,-37l52,-38l-6,-62c-5,-58 -4,-62 22,-79c16,-10 22,-20 15,-24c-14,-9 -2,-40 15,-40c8,0 21,-7 29,-16c16,-15 16,-33 1,-68c-4,-10 -4,-21 2,-25c5,-3 12,-14 16,-23c7,-20 27,-24 27,-6c0,25 38,-25 45,-59c6,-31 9,-34 31,-29c17,5 24,2 24,-9c0,-8 5,-15 10,-15c6,0 10,5 10,10c0,6 5,10 10,10c6,0 10,-11 10,-25c0,-14 5,-25 10,-25c19,0 15,51 -7,95c-11,21 -11,26 -2,18c7,-7 21,-13 32,-13c14,0 17,5 12,21c-6,17 -3,20 17,17c18,-2 22,1 20,16c-3,17 -2,18 12,7c9,-8 16,-10 16,-6c0,4 7,2 15,-5c8,-7 15,-21 15,-32c0,-18 1,-18 16,-4c14,14 13,18 -5,38c-12,12 -21,18 -21,14c0,-15 -32,18 -41,41c-5,14 -17,23 -29,23c-14,0 -24,10 -31,30c-6,17 -15,30 -20,30c-11,0 -41,58 -37,72c2,6 18,-1 35,-16c31,-26 49,-34 38,-16c-4,6 1,7 11,3c14,-5 16,-3 10,13c-6,15 -5,17 5,7c24,-24 33,-13 10,11c-23,24 -23,24 -3,35c15,8 23,8 28,-1c4,-7 3,-8 -4,-4c-7,4 -12,2 -12,-3c0,-19 27,-12 33,8c4,18 8,18 38,7c19,-6 44,-17 57,-24c31,-17 63,-12 84,14c13,16 28,21 54,20c19,-1 40,4 46,12c12,14 12,14 -23,29c-31,13 -74,92 -59,107c6,6 10,20 10,32c0,13 8,24 19,27c16,4 20,15 23,53c3,42 7,51 31,62c19,9 27,21 27,38c0,14 13,39 30,57c16,18 30,38 30,45c0,6 11,12 25,12c15,0 25,-6 25,-15c0,-15 52,-29 107,-28c18,1 30,-3 27,-8c-3,-5 -10,-9 -15,-9c-13,0 -55,-40 -43,-41c13,-2 26,-5 52,-14c18,-6 22,-14 20,-34c-3,-22 1,-26 26,-29c19,-2 32,2 38,12c5,9 20,16 33,16c13,0 27,5 30,10c3,6 22,10 41,10c24,0 34,5 34,15c0,17 5,14 51,-27c10,-10 25,-18 32,-18c7,0 22,-7 33,-15c10,-8 25,-15 33,-15c8,0 22,-7 32,-16c15,-13 24,-14 49,-6c25,9 36,8 63,-7c17,-11 48,-22 67,-26c19,-4 56,-20 81,-36c41,-26 52,-29 100,-23l54,6l65,-57c110,-95 375,-216 357,-162c-2,6 -11,12 -20,12c-10,0 -60,47 -112,104c-82,88 -95,108 -95,137c0,33 -29,74 -63,88c-8,3 -9,7 -2,13c6,4 15,21 20,37c10,31 61,66 83,58c6,-2 12,2 12,10c0,20 25,41 90,74c30,16 57,30 60,32c3,2 -8,14 -25,27c-24,20 -29,31 -27,59c2,28 -5,43 -31,73c-43,48 -53,67 -61,120c-6,42 -6,42 31,52c21,6 61,11 89,11c27,0 55,5 61,11c20,20 143,14 208,-9c45,-17 71,-21 107,-16c33,5 48,3 48,-5c0,-6 9,-11 19,-11c11,0 26,-7 35,-15c18,-19 42,-19 49,-1c4,10 17,13 44,9c71,-9 87,49 20,72c-51,17 -72,35 -55,47c13,9 6,16 -52,58c-20,14 -21,18 -10,62c10,41 10,50 -6,77c-25,42 -56,41 -95,-4c-42,-47 -75,-47 -109,1c-14,19 -36,49 -49,65c-23,29 -23,31 -6,49c10,11 31,20 47,20c67,0 91,80 39,128c-37,34 -51,70 -51,130c-1,113 -27,225 -84,351c-39,87 -53,128 -46,136c6,7 32,20 58,30c102,38 210,115 212,150c0,6 -19,29 -42,52c-49,47 -110,68 -228,78c-106,10 -111,11 -169,36c-39,16 -55,19 -63,11c-9,-9 -6,-17 10,-32c12,-12 26,-19 31,-16c10,6 88,-30 108,-49c19,-19 16,-25 -12,-25c-18,0 -23,-4 -19,-15c5,-11 2,-13 -10,-9c-8,3 -15,9 -15,12c3,20 -15,51 -32,55c-21,6 -27,-9 -6,-16c6,-2 -6,-8 -28,-12c-22,-4 -44,-11 -50,-15c-5,-4 -31,-7 -58,-7c-26,-1 -54,-6 -62,-13c-7,-6 -24,-10 -37,-8c-28,4 -36,34 -11,41c10,3 0,5 -22,6c-22,0 -50,-6 -62,-14c-11,-8 -36,-16 -54,-17c-19,-1 -52,-13 -74,-25c-22,-13 -49,-23 -60,-23c-31,-1 -61,-23 -60,-45c0,-11 -7,-23 -15,-27c-27,-12 -77,-8 -90,7c-7,8 -19,15 -27,15c-28,0 -6,24 32,34l38,11l-34,26c-27,21 -49,27 -107,31c-74,5 -106,-5 -52,-17c28,-6 30,-10 30,-49c0,-36 4,-45 25,-54c26,-12 31,-27 16,-51c-6,-10 -13,-11 -29,-2c-11,6 -30,11 -41,11c-12,0 -21,7 -21,16c0,10 -10,6 -32,-15c-18,-17 -40,-31 -48,-31c-8,0 -28,-11 -44,-23l-29,-23l23,-22c37,-34 15,-46 -53,-28c-30,8 -65,20 -78,26c-16,9 -27,9 -44,0c-24,-13 -23,-40 1,-40c8,0 14,-4 14,-10c0,-5 13,-10 29,-10c16,0 31,-6 35,-15c9,-26 -51,-22 -103,6c-20,10 -44,19 -53,19c-10,0 -18,6 -18,13c0,8 -9,22 -20,32c-15,14 -17,22 -9,37c12,23 -8,43 -53,53c-14,3 -28,12 -31,19c-4,9 14,8 77,-4c208,-43 266,-43 328,1c32,23 35,45 10,76c-17,21 -91,57 -100,49c-2,-3 -19,2 -36,11c-17,9 -33,16 -36,16c-8,-1 -31,8 -80,29c-25,11 -87,24 -137,30c-61,7 -93,15 -93,23c0,14 -69,28 -84,17c-6,-4 -31,-5 -56,-2l-45,5l33,12c19,7 31,16 28,21c-8,13 -124,44 -136,37c-6,-3 -10,-1 -10,4c0,6 -15,11 -34,11c-23,0 -38,-7 -49,-22c-11,-16 -16,-18 -17,-8c0,8 -12,21 -27,28c-33,15 -40,15 -48,1zm45,-19c0,-5 -5,-10 -11,-10c-5,0 -7,5 -4,10c3,6 8,10 11,10c2,0 4,-4 4,-10zm110,6c0,-9 -30,-14 -35,-6c-4,6 3,10 14,10c12,0 21,-2 21,-4zm-460,-96c0,-5 -7,-7 -15,-4c-8,4 -15,8 -15,10c0,2 7,4 15,4c8,0 15,-4 15,-10zm-100,-20c0,-5 -8,-10 -17,-10c-15,0 -16,2 -3,10c19,12 20,12 20,0zm-106,-66c3,-8 2,-12 -4,-9c-6,3 -10,10 -10,16c0,14 7,11 14,-7zm79,9c-7,-2 -19,-2 -25,0c-7,3 -2,5 12,5c14,0 19,-2 13,-5zm446,-219c21,-4 31,-12 31,-24c0,-14 -5,-17 -21,-13c-16,4 -20,2 -17,-8c6,-16 -56,-79 -78,-79c-8,0 -14,-4 -14,-8c0,-14 -58,-42 -73,-36c-8,3 -18,1 -22,-5c-3,-6 1,-14 9,-17c14,-5 14,-8 1,-20c-11,-11 -12,-20 -5,-34c6,-11 14,-28 18,-37c5,-10 7,-41 6,-69c-2,-43 0,-51 14,-50c9,0 16,-4 15,-10c-1,-7 13,-15 32,-18c18,-4 35,-11 37,-17c2,-7 30,-3 77,9c41,11 81,18 88,15c8,-3 18,-1 22,5c3,6 38,13 76,16c58,4 74,2 95,-14c28,-21 25,-29 -13,-32c-15,-1 -27,-8 -27,-16c0,-13 -50,-12 -150,1c-47,6 -164,-47 -132,-60c17,-7 15,-24 -3,-17c-8,4 -15,12 -15,20c0,8 -6,14 -12,13c-19,-1 -55,-17 -40,-18c18,-1 15,-21 -4,-21c-13,0 -15,-6 -9,-27c8,-33 16,-42 22,-25c3,6 13,12 24,12c10,0 19,4 19,9c0,12 39,21 46,10c3,-5 13,-9 22,-9c34,0 24,-99 -9,-100c-3,0 -22,15 -43,34c-34,30 -41,32 -66,23c-39,-15 -64,-75 -57,-137c6,-51 -11,-80 -46,-80c-9,0 -17,-7 -17,-15c0,-9 -11,-20 -24,-27c-27,-12 -61,-4 -51,12c18,29 -124,16 -150,-15c-5,-6 -38,-17 -72,-25c-65,-13 -93,-6 -93,25c0,28 -28,24 -124,-19c-21,-9 -41,-14 -45,-11c-8,9 39,46 49,40c4,-3 10,2 14,10c3,8 13,15 21,15c9,0 13,5 10,10c-4,6 -12,7 -18,3c-8,-5 -8,-2 0,9c7,8 10,18 6,21c-3,4 -1,7 5,7c7,0 12,8 13,18c1,11 4,8 8,-8c6,-22 13,-25 51,-25c37,0 45,4 49,20c5,29 31,44 74,45c28,0 37,4 37,18c0,14 2,15 10,2c5,-8 11,-12 13,-10c12,13 36,84 31,89c-4,3 -9,0 -11,-6c-8,-23 -24,-14 -18,10c5,18 11,54 14,88c1,4 11,10 24,14c12,4 24,8 27,9c3,1 15,5 28,10c12,4 22,14 22,23c0,9 7,21 15,27c12,9 12,15 2,35c-12,25 -20,30 -72,53c-31,14 -42,37 -29,66c4,9 7,29 7,43c0,17 9,32 28,45c16,10 29,24 29,29c0,10 70,45 91,45c5,0 26,16 47,36c27,26 33,37 23,43c-11,7 -9,15 9,39c13,17 27,29 32,26c4,-3 8,0 8,5c0,12 79,15 129,5zm-779,-96c0,-14 -48,-58 -63,-58c-5,0 -4,7 3,15c7,8 9,15 5,15c-5,0 2,9 15,20c26,23 40,25 40,8zm-183,-114c-3,-3 -12,-4 -19,-1c-8,3 -5,6 6,6c11,1 17,-2 13,-5zm213,-624c0,-4 -7,-11 -16,-14c-8,-3 -12,-2 -9,4c3,6 1,10 -4,10c-6,0 -11,4 -11,9c0,5 9,7 20,4c11,-3 20,-9 20,-13zm602,-2c-7,-7 -12,-8 -12,-2c0,14 12,26 19,19c2,-3 -1,-11 -7,-17zm-652,-17c0,5 6,4 14,-3c21,-19 -9,-34 -40,-19c-33,15 -32,33 1,21c16,-6 25,-6 25,1zm-345,-180c-3,-6 -11,-11 -16,-11c-5,0 -4,6 3,14c14,16 24,13 13,-3zm2225,-480c-19,-10 -38,-17 -42,-14c-5,2 -8,-2 -8,-10c0,-8 10,-18 23,-21c19,-6 20,-8 6,-16c-9,-5 -20,-21 -23,-36c-7,-25 -9,-26 -66,-21c-32,2 -63,0 -68,-5c-6,-6 -18,1 -30,17l-21,27l27,29c15,16 41,30 57,33c17,2 38,7 49,11c26,11 77,23 106,24c22,1 21,-1 -10,-18zm-1130,-734c5,2 7,-4 4,-12c-4,-8 -10,-15 -15,-15c-5,0 -12,-1 -16,-2c-4,-2 -8,13 -10,32c-3,34 -3,34 13,15c8,-11 19,-19 24,-18zm190,23c13,-8 13,-10 -2,-10c-9,0 -20,5 -23,10c-8,13 5,13 25,0zm-63,-36c-3,-3 -12,-4 -19,-1c-8,3 -5,6 6,6c11,1 17,-2 13,-5zm20,-36c-3,-8 -6,-5 -6,6c-1,11 2,17 5,13c3,-3 4,-12 1,-19z" id="svg_32"/>
   <path d="m292.48884,12751.90361c-9,-8 -25,-16 -36,-17c-11,-1 -20,-7 -20,-14c0,-7 -4,-13 -8,-13c-5,0 -17,-7 -28,-15c-17,-15 -14,-15 44,-12c79,5 87,-18 9,-29c-47,-7 -59,-13 -52,-24c3,-5 11,-10 16,-10c6,0 8,4 5,8c-7,12 68,1 76,-12c15,-22 8,-36 -17,-36c-15,0 -25,-6 -25,-14c0,-10 12,-13 48,-11c27,2 61,-3 79,-12c39,-18 127,-21 168,-6c56,21 100,35 146,48c63,18 129,61 129,84c0,11 -12,23 -30,31c-16,7 -27,16 -24,21c3,5 -1,9 -8,9c-8,1 -5,7 7,16c19,15 18,16 -17,10c-21,-4 -39,-2 -43,4c-10,16 -45,12 -45,-5c0,-9 -9,-15 -22,-15c-13,0 -51,0 -85,0c-48,0 -64,-4 -72,-18c-9,-16 -10,-16 -16,1c-10,24 -35,21 -35,-4c0,-14 -5,-19 -15,-16c-8,4 -17,2 -20,-3c-11,-17 -23,-11 -18,9c3,13 -6,24 -32,40c-43,25 -40,25 -59,5z" id="svg_33"/>
   <path d="m1153.48884,12440.90361c-11,-10 -8,-35 2,-28c5,3 13,0 17,-6c3,-6 1,-15 -5,-19c-9,-5 -7,-11 5,-21c16,-12 17,-12 11,3c-3,10 -2,20 4,23c5,4 7,10 4,15c-3,5 -1,11 5,15c5,3 10,12 10,18c0,8 -3,8 -9,-2c-6,-9 -11,-10 -15,-2c-8,12 -19,14 -29,4z" id="svg_34"/>
   <path d="m1367.48884,12194.90361c-6,-6 -11,-17 -11,-24c0,-15 -42,-27 -75,-21c-18,4 -29,-1 -40,-19c-26,-39 -55,-64 -66,-58c-5,4 -16,1 -25,-5c-11,-10 -12,-16 -2,-28c7,-8 12,-17 11,-19c-2,-1 -3,-6 -3,-10c0,-5 4,-2 9,6c5,8 11,9 15,3c3,-6 -9,-16 -29,-22c-19,-6 -35,-16 -35,-21c0,-6 8,-5 20,1c16,8 20,8 20,-4c0,-8 8,-16 18,-19c13,-3 11,-6 -10,-15c-16,-6 -28,-16 -28,-21c0,-16 20,-23 34,-12c14,11 26,5 26,-13c0,-6 -5,-4 -10,4c-8,13 -10,12 -10,-3c0,-15 5,-17 30,-12c25,5 29,4 24,-9c-3,-9 -10,-16 -15,-16c-6,0 -5,-10 2,-21c6,-12 14,-18 18,-13c10,14 81,14 75,0c-2,-6 4,-21 14,-31c18,-21 18,-55 -2,-67c-6,-4 -28,-5 -48,-2c-23,2 -38,0 -38,-6c0,-6 5,-8 10,-5c18,11 11,-4 -12,-25l-23,-22l25,4c44,6 37,-27 -10,-46c-56,-22 -52,-49 9,-52c48,-2 84,-24 40,-24c-24,0 -69,-32 -69,-49c0,-4 -16,-16 -35,-26c-19,-11 -32,-21 -29,-24c11,-11 38,-9 61,6c14,9 34,13 51,10c21,-4 33,0 45,13c13,16 27,18 86,15c39,-2 71,0 71,5c0,4 19,7 43,6c44,-3 127,26 127,43c0,6 -7,11 -15,11c-19,0 -20,26 -1,33c28,11 48,54 37,76c-14,25 -66,37 -89,19c-15,-11 -16,-11 -4,3c10,13 10,22 0,45c-6,16 -12,34 -12,39c-1,13 -29,40 -55,55c-11,6 -24,23 -27,38c-10,38 -36,71 -56,72c-24,0 -23,32 2,50c11,8 20,20 20,26c0,7 7,20 16,28c24,25 7,36 -56,36c-32,0 -62,5 -65,10c-3,6 -1,10 5,10c7,0 23,9 37,20c14,11 22,20 18,20c-5,0 1,10 12,23c11,12 23,27 26,33c9,15 -38,15 -52,1zm-191,-137c0,-5 -5,-10 -11,-10c-5,0 -7,5 -4,10c3,6 8,10 11,10c2,0 4,-4 4,-10z" id="svg_35"/>
   <path d="m1039.48884,11879.90361c-24,-8 -71,-62 -53,-62c6,0 8,-5 5,-10c-3,-6 -26,-8 -51,-6c-35,4 -46,1 -54,-14c-7,-13 -6,-20 3,-23c9,-4 9,-7 0,-18c-19,-19 -16,-26 12,-33c35,-9 31,-26 -15,-60c-37,-28 -54,-66 -29,-66c5,0 7,-5 3,-12c-5,-8 -2,-9 9,-5c10,3 17,2 17,-4c0,-17 77,0 128,27c25,13 59,24 77,24c28,0 33,4 43,39c7,21 12,56 12,78c0,33 4,42 25,51c29,13 32,38 7,68c-20,23 -99,38 -139,26z" id="svg_36"/>
   <path d="m2142.48884,10845.90361c-4,-9 -18,-19 -31,-22c-13,-3 -25,-14 -27,-24c-6,-26 9,-73 28,-87c16,-11 15,-14 -10,-30c-21,-14 -29,-16 -35,-6c-6,9 -10,7 -13,-6c-3,-11 1,-28 8,-38c8,-10 12,-28 9,-39c-15,-79 -15,-85 7,-97c18,-9 24,-8 34,6c7,10 20,15 28,12c19,-8 25,11 28,96c3,57 0,71 -15,82c-16,12 -17,18 -7,52c13,42 10,130 -4,101z" id="svg_37"/>
   <path d="m3163.48884,10220.90361c-4,-3 -7,-14 -7,-23c0,-13 12,-19 42,-24c23,-4 45,-11 48,-17c4,-6 27,-6 60,-2c51,8 70,21 41,31c-9,3 -11,0 -6,-9c6,-10 2,-9 -11,2c-10,9 -41,17 -69,18c-27,2 -52,7 -53,12c-2,5 -8,6 -14,3c-6,-4 -13,-1 -17,5c-4,6 -10,8 -14,4z" id="svg_38"/>
  </g>
 </g>
</svg>