<svg width="180" height="105" xmlns="http://www.w3.org/2000/svg" preserveAspectRatio="xMidYMid meet" version="1.0">
 <metadata>Created by potrace 1.7, written by Peter Selinger
  2001-2005</metadata>

 <g>
  <title>Layer 1</title>
  <g id="svg_42" fill="#000000" transform="translate(0 239) scale(0.016963 -0.016963)">
   <path id="svg_43" d="m9184.02307,14053.75917c-74,-4 -196,-10 -270,-13c-74,-3 -148,-9 -165,-13c-16,-3 -41,-5 -55,-4l-25,3l25,-21c20,-16 22,-20 8,-21c-9,0 -20,5 -24,11c-3,6 -15,9 -25,6c-11,-3 -26,1 -33,9c-17,16 -30,19 -21,4c4,-6 -9,-10 -30,-10c-30,0 -36,-3 -31,-16c5,-13 2,-15 -16,-9c-56,16 -92,16 -105,-1c-12,-17 -13,-17 -13,1c0,17 -8,18 -113,12c-62,-4 -142,-9 -177,-12c-36,-3 -59,-3 -52,1c24,12 11,24 -26,24c-21,0 -43,5 -50,12c-8,8 -110,12 -354,13c-349,2 -462,-4 -533,-28c-28,-10 -51,-11 -82,-5c-28,6 -61,6 -96,-2c-30,-6 -90,-13 -133,-15c-115,-6 -184,-16 -184,-26c0,-5 9,-9 20,-9c11,0 20,-6 20,-14c0,-7 15,-18 33,-24c22,-7 26,-10 12,-11c-12,-1 -27,-7 -34,-13c-10,-11 -12,-10 -9,1c2,8 -7,15 -21,17c-14,3 -33,13 -43,24c-14,15 -32,20 -68,20c-27,0 -52,-4 -55,-10c-3,-5 -22,-10 -41,-10c-19,0 -34,-4 -34,-10c0,-5 -10,-10 -22,-11c-13,0 -43,-8 -68,-18c-35,-15 -44,-23 -44,-42c-1,-19 6,-25 29,-28c22,-2 25,-5 13,-10c-16,-6 -16,-8 2,-31c18,-24 22,-25 152,-26c135,-1 204,-14 164,-30c-13,-5 -21,-3 -24,4c-4,12 -78,17 -105,6c-9,-3 -13,-13 -9,-26c4,-18 2,-20 -16,-15c-12,3 -47,-1 -77,-8c-30,-7 -56,-10 -59,-8c-8,8 -46,-8 -46,-18c0,-6 5,-7 12,-3c7,5 8,3 4,-5c-6,-9 -12,-8 -26,4c-14,13 -29,15 -63,10c-29,-4 -47,-3 -51,4c-4,6 -18,11 -31,11c-13,0 -26,4 -29,9c-6,10 -98,2 -106,-9c-3,-4 -12,-10 -20,-13c-12,-4 -12,-6 2,-6c17,-1 36,-46 25,-57c-2,-3 -36,-7 -73,-9l-69,-5l29,26c26,24 26,28 12,43c-13,13 -20,13 -36,3c-24,-15 -33,-15 -25,-2c9,15 -60,12 -121,-6c-34,-10 -54,-21 -54,-30c0,-8 -5,-12 -10,-9c-6,4 -8,10 -5,15c8,13 -42,40 -61,33c-24,-9 -57,-43 -42,-43c6,0 8,-3 5,-7c-13,-12 29,-32 69,-33c34,0 42,-3 40,-17c-1,-16 8,-18 73,-15c55,2 77,7 86,19c8,11 18,14 31,8c13,-5 15,-9 6,-12c-10,-4 -8,-9 5,-19c11,-8 13,-13 6,-14c-18,0 -16,-20 2,-20c8,0 15,4 15,9c0,4 22,6 49,3c44,-4 53,-1 77,23c22,22 24,29 13,37c-11,7 -11,11 -1,15c6,2 12,11 12,19c0,21 86,19 94,-2c4,-9 5,-18 4,-18c-2,-1 -15,-7 -29,-13c-24,-10 -47,-51 -31,-54c31,-6 81,-9 235,-15c128,-5 181,-3 191,5c11,9 16,9 21,0c8,-12 117,-6 175,11c32,9 60,32 60,49c0,31 -138,38 -274,15c-44,-7 -83,-11 -88,-8c-5,3 -29,7 -54,8c-45,3 -89,26 -48,26c12,0 24,3 28,8c4,4 65,8 134,8c70,1 154,2 187,3c33,1 69,2 80,1c20,-1 20,-1 0,-11c-14,-6 -2,-8 40,-4c44,3 54,2 38,-5c-30,-12 -29,-20 3,-20c17,0 28,6 31,20c3,12 14,20 28,20c37,0 85,21 85,37c0,11 -7,14 -26,9c-17,-5 -23,-3 -19,4c3,5 16,10 28,10c12,0 36,7 52,16c17,9 53,18 80,20c70,6 92,14 74,25c-9,6 -3,7 17,3c19,-4 34,-1 38,5c4,6 15,11 25,11c10,0 28,11 40,24c23,24 49,31 160,42c30,2 69,12 87,20c18,9 38,17 46,18c209,38 266,51 255,58c-6,4 5,5 25,1c21,-3 43,-1 50,5c14,10 158,36 165,28c2,-2 -3,-11 -12,-20c-11,-11 -35,-16 -73,-16c-76,-1 -284,-42 -290,-58c-2,-8 10,-12 42,-12c25,0 46,-4 46,-10c0,-19 -47,-33 -140,-41c-146,-12 -303,-36 -333,-52l-27,-14l26,-11c14,-7 33,-12 44,-12c10,0 21,-4 24,-8c2,-4 -20,-7 -50,-6c-30,1 -57,-2 -60,-7c-3,-5 6,-9 20,-9c17,0 24,-4 20,-13c-9,-23 70,-69 128,-75c35,-3 49,-1 44,6c-4,7 3,8 25,2c18,-5 35,-7 40,-4c24,15 170,11 243,-7c79,-19 104,-29 73,-29c-23,0 -11,-27 16,-34c21,-6 21,-7 4,-20c-18,-14 -18,-14 0,-19c14,-4 13,-5 -5,-6c-13,0 -21,-5 -17,-11c3,-5 13,-7 23,-4c11,4 9,-2 -8,-17l-25,-22l23,6c23,5 23,5 6,-14c-16,-17 -16,-22 -4,-29c12,-8 10,-10 -7,-10c-25,0 -31,-15 -10,-24c8,-3 3,-13 -16,-28c-24,-21 -26,-26 -14,-43c11,-14 22,-17 50,-12c20,3 39,2 42,-4c3,-5 -1,-6 -9,-3c-9,3 -16,1 -16,-5c0,-6 9,-11 21,-11c14,0 19,6 17,18c-1,9 2,17 7,17c5,0 9,-6 7,-12c-2,-8 7,-13 20,-13c17,0 24,-6 25,-20c2,-21 -11,-27 -22,-10c-8,13 -122,13 -129,1c-4,-5 0,-12 6,-15c7,-3 0,-4 -15,-1c-16,3 -26,2 -23,-3c3,-5 -3,-21 -14,-34l-19,-25l32,-18c29,-15 38,-15 86,-3c62,15 73,29 35,47c-15,6 -24,15 -20,18c3,4 12,1 18,-5c7,-7 22,-12 34,-12c28,0 29,-32 2,-72c-17,-25 -23,-26 -66,-21c-45,5 -50,3 -74,-26c-15,-17 -29,-31 -33,-31c-11,0 -55,-53 -55,-66c0,-8 8,-14 18,-15c13,0 12,-2 -5,-9c-25,-10 -48,-46 -34,-54c5,-3 7,-16 3,-28c-4,-17 -2,-20 13,-15c13,5 16,3 11,-8c-3,-8 -2,-15 3,-15c5,0 3,-17 -4,-37c-11,-33 -11,-39 2,-47c11,-6 12,-10 4,-15c-15,-9 3,-61 20,-61c7,0 9,-11 6,-30c-4,-16 -3,-30 2,-30c4,0 13,-18 20,-39c6,-21 18,-42 26,-45c8,-3 15,-15 15,-26c0,-22 12,-25 38,-11c24,12 112,-15 112,-35c0,-8 8,-17 18,-20c9,-3 27,-10 39,-16c28,-14 75,2 88,30c5,12 15,22 22,22c6,0 14,9 18,20c3,10 21,34 39,52c18,18 36,46 40,61c4,17 17,32 32,37c13,5 37,21 52,35c15,14 35,28 45,31c9,3 17,12 17,19c0,8 10,23 21,34c14,13 20,27 16,40c-3,11 -2,19 2,18c13,-4 71,26 65,34c-3,5 16,9 41,9c34,0 44,3 39,13c-6,9 -4,9 7,1c21,-16 69,-26 69,-14c0,5 7,10 15,10c8,0 15,5 15,11c0,5 5,7 10,4c6,-4 16,-3 23,2c7,5 37,17 67,27c33,11 75,35 105,62c28,24 62,46 77,50c16,3 32,13 38,22c8,14 11,15 19,3c6,-10 21,-12 53,-7c144,22 293,55 336,76c23,11 45,20 49,20c5,0 39,13 76,29l68,28l-58,7c-81,9 -153,23 -125,25c18,1 23,6 20,24c-2,18 2,22 26,22c21,0 30,-5 32,-18c1,-11 5,-22 9,-25c9,-10 114,-19 126,-11c6,4 13,26 14,50c2,41 0,44 -34,61c-30,14 -32,16 -8,11c32,-6 66,15 45,28c-10,7 -8,9 5,9c13,0 17,5 12,19c-6,20 16,31 66,31c41,0 66,34 32,43c-13,3 -11,5 7,7c14,1 29,2 34,1c15,-3 90,32 102,48c6,8 18,11 27,8c9,-3 19,-2 22,3c4,6 -1,10 -10,10c-9,0 -13,5 -10,10c4,6 -6,10 -23,10c-29,0 -48,-22 -36,-41c6,-10 -39,-13 -49,-2c-4,3 2,13 13,20c28,20 23,70 -8,91c-29,19 -15,29 32,24c26,-3 33,-8 29,-20c-4,-9 -2,-13 4,-9c7,5 9,0 6,-13c-8,-31 7,-23 18,10c6,17 18,30 26,30c8,0 13,7 11,18c-2,12 -14,17 -41,19c-21,0 -41,4 -45,8c-4,5 3,6 14,3c12,-3 28,-2 35,3c10,6 6,10 -13,18c-14,5 -29,15 -33,21c-5,8 -11,8 -21,-1c-24,-20 -29,0 -5,20c18,16 32,19 64,14c34,-4 39,-3 34,11c-4,11 -1,16 11,17c14,0 14,2 -3,9c-25,10 -11,16 54,23c24,3 47,10 50,15c3,6 23,13 43,17c21,4 35,11 32,16c-3,5 11,9 30,9c19,0 37,4 40,8c3,5 37,14 76,21c101,18 77,32 -64,39c-83,3 -120,1 -130,-7c-17,-14 -60,-5 -51,10c4,5 -1,9 -9,9c-9,0 -15,-5 -13,-12c1,-6 -6,-14 -16,-16c-10,-2 -16,2 -15,9c2,7 -6,15 -17,17c-11,2 -17,1 -12,-4c4,-4 -14,-16 -40,-26c-57,-22 -63,-22 -38,-5c10,8 15,19 11,26c-4,6 0,13 8,16c9,3 23,7 32,10c27,9 13,13 -60,20c-38,4 -86,13 -106,20c-48,17 -361,25 -540,14zm-393,-74c0,-17 0,-17 -23,-8c-16,6 -16,7 2,14c10,4 19,8 20,8c0,1 1,-6 1,-14zm963,-5c-8,-5 -24,-9 -35,-9c-16,1 -16,2 5,9c35,11 48,11 30,0zm-3023,-16c-3,-3 -12,-4 -19,-1c-8,3 -5,6 6,6c11,1 17,-2 13,-5zm50,-72c-24,-2 -42,-10 -50,-23c-16,-26 -25,-24 -20,5c5,27 35,36 83,26c20,-4 18,-6 -13,-8zm158,8c3,-5 -2,-10 -11,-10c-16,0 -16,-1 2,-15c18,-14 17,-14 -8,-4c-22,10 -25,15 -17,26c14,16 26,17 34,3zm-165,-67c0,-9 -3,-12 -7,-7c-5,5 -12,12 -18,16c-6,4 -2,8 8,8c9,0 17,-7 17,-17zm-20,-17c0,-3 -4,-8 -10,-11c-5,-3 -10,-1 -10,4c0,6 5,11 10,11c6,0 10,-2 10,-4zm-190,-41c-7,-8 -17,-15 -23,-15c-6,0 -2,7 9,15c25,19 30,19 14,0zm973,-62c-7,-2 -19,-2 -25,0c-7,3 -2,5 12,5c14,0 19,-2 13,-5zm-150,-10c-7,-2 -19,-2 -25,0c-7,3 -2,5 12,5c14,0 19,-2 13,-5zm-1648,-64c11,-17 -1,-21 -15,-4c-8,9 -8,15 -2,15c6,0 14,-5 17,-11zm-158,-15c-3,-3 -12,-4 -19,-1c-8,3 -5,6 6,6c11,1 17,-2 13,-5zm3958,-174c3,-5 1,-10 -4,-10c-6,0 -11,5 -11,10c0,6 2,10 4,10c3,0 8,-4 11,-10zm-22,-30c-29,-12 -30,-37 -2,-45c27,-9 20,-16 -9,-8c-13,3 -22,13 -22,24c0,10 -8,23 -17,28c-14,8 -8,10 27,10c37,0 41,-2 23,-9zm90,3c-7,-2 -21,-2 -30,0c-10,3 -4,5 12,5c17,0 24,-2 18,-5zm4,-19c-3,-3 -12,-4 -19,-1c-8,3 -5,6 6,6c11,1 17,-2 13,-5zm-1882,-632c-3,-3 -11,0 -18,7c-9,10 -8,11 6,5c10,-3 15,-9 12,-12z"/>
   <path id="svg_44" d="m5794.02307,13825.75917c-25,-3 -45,-11 -45,-18c0,-7 -9,-19 -20,-27c-11,-8 -18,-17 -15,-20c3,-3 39,-7 79,-10c40,-2 78,-9 84,-15c6,-6 28,-11 48,-11c32,0 40,5 52,30c15,29 15,30 -16,44c-18,8 -43,16 -57,19c-14,3 -34,7 -45,10c-11,2 -40,2 -65,-2z"/>
   <path id="svg_45" d="m5377.02307,13780.75917c-78,-12 -106,-26 -52,-26c19,0 39,-4 45,-8c7,-4 -19,-7 -57,-7c-51,0 -72,-4 -79,-15c-14,-23 16,-33 82,-26c61,6 111,29 86,39c-7,3 2,3 21,0c24,-4 32,-3 27,5c-5,8 1,12 16,12c13,0 30,5 38,10c13,9 13,11 0,20c-18,11 -32,11 -127,-4z"/>
   <path id="svg_46" d="m4954.02307,13705.75917c-66,-6 -114,-17 -226,-52c-17,-5 -42,-9 -56,-9c-14,0 -39,-5 -57,-11c-38,-14 -43,-38 -5,-31c16,3 29,-1 34,-9c7,-11 13,-10 29,5c14,13 21,15 21,6c0,-9 9,-11 32,-6c30,6 31,5 13,-8c-19,-15 -19,-15 7,-16c15,0 38,4 52,10c14,5 26,7 26,5c0,-3 -12,-10 -27,-16c-24,-9 -26,-12 -11,-20c9,-5 36,-11 60,-13c26,-2 42,-7 40,-15c-6,-28 50,-32 172,-12c67,11 162,22 211,25c73,4 101,10 143,32c62,32 56,49 -14,45l-47,-2l16,24c15,24 13,37 -5,37c-5,0 -6,-5 -2,-12c4,-7 3,-8 -5,-4c-6,4 -28,2 -49,-4c-72,-22 -68,-20 -52,-30c12,-8 10,-10 -7,-10c-27,0 -31,-17 -5,-23c9,-3 -9,-5 -41,-6c-32,0 -56,3 -53,8c12,19 -33,41 -95,48c-63,6 -64,7 -34,19c17,7 26,14 20,15c-5,1 3,4 19,8c17,3 30,11 30,16c1,13 -38,14 -134,6zm-21,-92l46,-8l-47,3c-25,2 -52,0 -60,-5c-10,-7 -8,-9 7,-10c11,0 15,-3 9,-5c-6,-3 -22,0 -35,5c-17,7 -19,10 -6,10c9,1 17,6 17,12c0,7 -12,8 -32,4c-33,-6 -33,-6 -8,8c17,9 31,11 44,4c10,-5 39,-13 65,-18zm36,21c-3,-5 -15,-10 -26,-10c-11,0 -17,5 -14,10c3,6 15,10 26,10c11,0 17,-4 14,-10zm-10,-90c4,-6 -7,-10 -27,-9c-31,1 -32,1 -8,9c14,4 26,8 27,9c1,1 5,-3 8,-9z"/>
   <path id="svg_47" d="m4351.02307,13507.75917c-17,-3 -32,-14 -39,-29c-6,-13 -17,-24 -23,-24c-7,0 -33,-11 -59,-25c-26,-14 -52,-25 -58,-25c-6,0 -19,-6 -27,-14c-9,-7 -37,-21 -63,-31c-26,-10 -45,-21 -42,-26c2,-4 10,-6 17,-4c19,7 50,-22 43,-40c-9,-23 15,-28 65,-12c24,8 62,15 83,16c22,1 51,10 65,20c34,24 149,62 156,51c3,-4 -10,-11 -28,-14c-17,-4 -41,-13 -51,-21c-19,-15 -19,-15 -1,-28c17,-13 16,-15 -13,-25c-37,-13 -38,-15 -16,-36c13,-14 31,-15 107,-10c103,8 101,8 141,6c16,-1 27,-5 23,-8c-3,-3 -57,-7 -119,-9c-150,-3 -198,-12 -198,-36c0,-33 28,-49 88,-49c43,0 53,-3 44,-12c-7,-7 -12,-19 -12,-28c0,-15 12,-16 88,-14c48,2 110,8 137,14c28,6 70,13 95,15l45,4l-40,-8c-82,-17 -101,-30 -95,-70c1,-10 -7,-12 -37,-6c-41,7 -50,12 -41,21c4,3 15,1 26,-5c24,-13 36,-3 17,15c-11,11 -20,12 -42,3c-56,-22 -182,-31 -217,-15c-14,7 -17,6 -12,-2c5,-9 -6,-12 -39,-10c-53,2 -42,14 23,24c52,8 62,22 33,45c-16,13 -38,18 -79,17c-31,-1 -79,6 -105,15c-26,9 -54,17 -61,17c-8,0 -19,7 -26,15c-17,20 -98,20 -138,-1c-18,-8 -41,-13 -52,-9c-21,7 -28,25 -10,25c6,0 10,-4 10,-10c0,-5 5,-10 11,-10c5,0 8,4 5,9c-3,5 1,11 9,15c8,3 15,10 15,16c0,12 -48,3 -70,-14c-14,-12 -66,-36 -76,-36c-2,0 -1,18 2,40c5,32 3,41 -11,46c-9,4 -20,2 -25,-5c-10,-17 -58,-41 -81,-41c-13,0 -17,5 -12,17c5,13 3,15 -13,9c-10,-5 -28,-10 -39,-11c-68,-10 -189,-36 -203,-45c-13,-8 -10,-9 13,-5c26,5 27,5 11,-5c-14,-10 -24,-9 -45,1c-28,14 -121,19 -121,7c0,-5 -9,-8 -19,-8c-11,0 -27,-8 -36,-17c-29,-29 -141,-12 -129,20c3,9 -10,13 -48,15c-69,3 -108,11 -108,24c0,5 -30,9 -72,8c-40,0 -102,4 -138,10c-36,6 -103,14 -150,18c-63,5 -84,10 -82,20c2,11 -10,13 -53,10c-39,-2 -56,1 -60,11c-3,7 -12,11 -20,7c-8,-3 -18,1 -23,10c-7,12 -16,11 -67,-7c-33,-11 -89,-22 -125,-24c-36,-2 -92,-10 -125,-19c-32,-9 -73,-16 -91,-16c-35,0 -111,-25 -195,-64c-34,-16 -91,-31 -140,-37c-46,-6 -97,-17 -112,-25c-16,-8 -37,-14 -48,-14c-25,0 -24,-17 1,-25c27,-9 46,-43 31,-58c-17,-17 -13,-27 9,-27c14,0 18,-5 13,-17c-9,-25 -43,-53 -62,-52c-28,2 -77,17 -60,18c9,0 22,8 29,16c16,20 5,20 -85,-1c-86,-19 -134,-30 -205,-44c-61,-13 -82,-26 -57,-36c15,-6 15,-9 -3,-34c-27,-37 -16,-43 73,-42c39,1 76,-3 82,-8c8,-7 24,-5 48,5c42,17 71,20 47,5c-12,-8 -12,-10 -1,-10c21,0 -35,-49 -64,-56c-14,-3 -41,-3 -60,0c-20,4 -35,3 -35,-3c0,-16 -62,-32 -98,-25c-34,7 -60,-2 -114,-38c-14,-10 -33,-18 -42,-18c-16,0 -87,-30 -96,-41c-3,-3 -18,-9 -33,-13c-28,-7 -53,-48 -41,-67c3,-5 -6,-13 -19,-18c-21,-8 -25,-16 -24,-45c1,-32 4,-36 26,-36c15,0 43,4 63,9c34,8 37,7 28,-9c-6,-10 -19,-21 -29,-25c-11,-3 -26,-17 -35,-30c-9,-14 -24,-25 -33,-25c-12,0 -14,-3 -6,-11c8,-8 17,-8 33,1c15,8 20,8 16,1c-10,-15 0,-14 34,4c35,18 84,10 76,-11c-7,-19 24,-18 38,2c9,11 18,13 36,6c24,-9 24,-9 -20,-42c-25,-18 -65,-41 -90,-52c-25,-11 -54,-23 -65,-28c-11,-5 -54,-20 -95,-33c-91,-30 -130,-47 -130,-59c0,-5 -9,-4 -19,1c-19,11 -51,2 -166,-42c-67,-26 -79,-29 -117,-33c-48,-5 -123,-43 -110,-56c6,-6 17,-6 30,1c11,6 33,11 49,11c15,0 41,7 58,16c16,8 39,13 50,10c11,-3 29,2 39,9c10,8 22,12 27,10c4,-3 10,-1 14,5c11,19 56,11 62,-10c6,-23 14,-25 31,-8c8,8 15,8 26,-1c12,-10 17,-8 26,8c9,17 8,21 -5,21c-8,0 -15,7 -15,16c0,12 6,15 25,10c16,-4 34,0 50,10c13,8 29,13 34,9c12,-7 78,21 99,42c8,7 18,11 23,8c5,-4 9,-1 9,5c0,6 12,8 31,5c18,-3 28,-2 25,4c-3,5 12,12 34,16c22,4 50,14 62,24c19,14 46,25 118,46c3,1 18,7 33,13c16,7 36,12 45,12c9,0 35,11 57,25c22,13 50,25 61,25c30,0 53,28 33,41c-11,7 -10,9 6,10c11,1 25,1 31,0c7,-1 14,5 18,14c3,8 17,15 31,15c14,0 25,5 25,10c0,6 8,10 18,10c10,0 26,6 37,13c28,19 55,28 55,18c0,-4 -12,-13 -26,-19c-14,-7 -22,-17 -19,-22c4,-6 -7,-15 -24,-21c-17,-6 -31,-15 -31,-20c0,-16 53,-9 123,15c37,13 67,22 67,19c0,-3 6,-1 13,5c15,13 76,17 99,7c11,-4 35,2 63,15c41,20 59,40 35,40c-5,0 -10,-4 -10,-10c0,-5 -4,-10 -9,-10c-5,0 -8,8 -6,18c1,11 10,16 24,15c11,-2 21,2 21,7c0,6 11,10 25,10c29,0 30,-22 1,-30c-11,-3 -21,-11 -23,-17c-3,-9 5,-9 30,-1c24,7 43,7 63,0c28,-10 28,-11 7,-17c-13,-4 -23,-12 -23,-17c0,-6 7,-7 18,-2c9,4 49,9 88,12c54,3 79,0 104,-13c20,-10 42,-14 59,-11c17,5 22,4 12,-3c-11,-7 -9,-13 12,-31c14,-12 28,-33 31,-46c4,-13 11,-24 16,-24c16,0 -2,-74 -24,-99c-14,-16 -16,-22 -6,-19c11,4 15,-1 15,-17c0,-13 -3,-21 -7,-18c-5,2 -8,-3 -8,-11c0,-23 16,-20 34,6c9,12 18,19 21,16c3,-3 -8,-17 -25,-31c-36,-31 -37,-37 -7,-38l22,0l-22,-9c-19,-8 -22,-16 -19,-42c3,-28 7,-33 33,-35c20,-2 37,4 48,17c17,19 19,19 31,2c12,-16 13,-15 24,8l10,25l-5,-27c-3,-15 -1,-30 5,-33c5,-3 10,-12 10,-18c0,-8 -3,-7 -9,2c-7,11 -11,10 -19,-5c-6,-10 -14,-16 -17,-12c-10,10 -38,-19 -30,-31c3,-5 1,-12 -5,-16c-15,-10 -12,-22 12,-45c12,-11 16,-20 9,-20c-7,0 -11,-9 -9,-22c2,-13 9,-22 17,-20c9,2 7,-8 -7,-32c-14,-23 -17,-38 -10,-42c7,-4 6,-9 -2,-14c-10,-6 -5,-15 16,-36c21,-20 24,-25 9,-19c-26,10 -44,10 -72,1c-14,-4 -23,-3 -23,3c0,5 10,12 23,14c19,3 19,4 -3,3c-21,-1 -25,-6 -23,-28c1,-16 -3,-28 -10,-28c-7,0 -1,-6 13,-13c14,-7 26,-18 26,-25c1,-7 2,-16 3,-21c0,-5 10,-13 21,-16c11,-4 18,-11 15,-16c-4,-5 1,-12 9,-15c9,-3 13,-10 10,-15c-3,-5 1,-9 8,-9c7,0 21,-7 32,-15c17,-13 17,-14 -9,-12c-30,2 -34,-3 -59,-81c-17,-52 -74,-158 -99,-184c-7,-7 -24,-29 -37,-48c-13,-19 -42,-54 -64,-78c-55,-59 -73,-89 -91,-147c-8,-27 -32,-72 -54,-98c-34,-40 -38,-51 -29,-67c9,-14 7,-26 -6,-55c-15,-30 -16,-42 -7,-62c7,-14 9,-33 6,-43c-3,-10 -1,-21 4,-24c5,-4 7,-22 4,-42c-4,-25 -2,-39 8,-45c12,-8 12,-10 0,-18c-13,-8 -13,-18 -1,-68c8,-32 14,-74 14,-93c1,-33 3,-35 39,-38c24,-2 37,-8 37,-18c0,-12 19,-19 44,-15c5,1 6,-5 3,-14c-4,-9 -1,-15 7,-15c25,0 45,-35 45,-80c0,-44 8,-165 11,-165c1,0 3,-24 5,-54c3,-39 9,-57 24,-67c11,-8 29,-30 41,-49c21,-33 21,-37 6,-60c-16,-25 -25,-29 -58,-26c-10,1 -18,-1 -18,-6c0,-17 82,-103 92,-97c12,8 78,-61 78,-80c0,-8 -7,-27 -15,-42c-8,-16 -15,-36 -15,-44c0,-20 19,-40 38,-40c23,0 92,-80 92,-107c0,-16 4,-23 13,-19c6,3 20,9 31,12c15,6 17,14 12,43c-3,20 -6,44 -6,54c0,9 -5,17 -11,17c-5,0 -7,-6 -4,-12c4,-7 -2,-2 -13,11c-19,23 -20,23 -25,5c-3,-14 -5,-12 -6,8c0,15 4,30 9,33c15,9 12,25 -4,25c-15,0 -28,58 -14,66c4,3 8,10 8,15c0,6 -4,7 -10,4c-6,-3 -10,5 -10,18c0,25 -38,109 -52,115c-12,6 -9,57 4,70c6,6 8,15 4,19c-4,4 -11,1 -16,-7c-8,-12 -10,-10 -10,7c0,12 -4,25 -10,28c-5,3 -10,11 -10,18c0,6 7,2 16,-9c15,-18 15,-18 9,11c-8,37 -14,43 -24,26c-6,-9 -13,-4 -28,19c-18,28 -18,36 -7,91c14,70 17,74 41,64c10,-5 22,-7 26,-6c14,3 50,-38 45,-51c-3,-7 -2,-38 2,-68c5,-39 4,-63 -6,-81c-12,-25 -10,-39 7,-39c4,0 5,10 2,23c-3,13 3,8 13,-13c10,-19 24,-41 31,-48c7,-7 13,-17 13,-22c0,-5 8,-11 19,-15c13,-4 17,-12 13,-31c-3,-20 0,-26 17,-31c11,-3 21,-13 21,-23c0,-10 10,-20 22,-23c20,-6 20,-7 5,-31c-10,-14 -17,-31 -17,-37c0,-13 38,-49 52,-49c5,0 14,-12 21,-27c6,-16 23,-39 38,-53c14,-14 34,-41 44,-60c9,-19 28,-49 40,-66c22,-28 26,-50 26,-134c0,-62 -2,-70 -17,-70c-21,0 -17,-44 9,-83c12,-19 38,-43 57,-53c19,-10 39,-29 44,-41c9,-20 67,-46 102,-46c9,0 30,-14 48,-32c30,-31 133,-85 161,-85c7,0 20,-6 27,-12c21,-20 74,-48 91,-48c8,0 27,-6 42,-14c29,-15 59,-10 117,18c17,9 39,16 48,16c41,0 91,-32 129,-83c62,-83 92,-107 147,-116c27,-4 58,-12 69,-18c57,-30 96,-41 139,-38c37,2 44,0 32,-9c-14,-9 -11,-17 22,-53c91,-104 109,-138 89,-171c-13,-20 2,-50 33,-66c27,-13 31,-13 40,2c9,16 9,16 10,0c0,-9 15,-24 34,-33c35,-17 52,-40 36,-50c-12,-7 -1,-35 13,-35c6,0 21,-10 34,-22c21,-19 23,-20 23,-4c0,12 5,16 16,12c9,-3 24,-6 34,-6c21,0 35,-29 20,-44c-14,-14 -12,-26 5,-26c9,0 12,6 9,15c-9,24 22,8 40,-21c16,-23 17,-23 51,-7c38,18 42,29 20,59c-20,26 -19,27 15,42c17,8 30,20 30,27c0,7 7,15 15,19c14,5 22,66 9,66c-3,0 -35,-16 -70,-35c-72,-40 -80,-41 -106,-18c-13,11 -18,12 -18,3c0,-10 -3,-10 -14,0c-8,6 -13,17 -10,24c3,7 -7,18 -21,24c-14,6 -25,18 -25,27c0,8 -5,15 -10,15c-6,0 -15,12 -20,28c-6,15 -15,37 -21,48c-8,16 -8,27 0,42c6,11 11,32 11,46c0,14 5,26 10,26c6,0 10,24 10,53c0,33 7,66 19,88c11,20 17,46 15,57c-3,11 -1,23 6,27c7,4 1,15 -17,31c-15,13 -35,31 -44,39c-20,19 -139,36 -156,23c-14,-11 -97,-13 -113,-3c-6,4 -17,1 -25,-5c-12,-10 -18,-10 -30,0c-8,6 -20,8 -27,4c-7,-4 0,6 15,23c16,17 30,46 34,69c3,21 10,45 16,52c5,6 7,12 4,12c-3,0 5,11 18,25c14,13 25,31 25,39c0,8 5,27 12,43c6,15 12,36 12,45c1,9 4,20 9,24c4,4 7,15 7,24c0,10 7,23 15,30c13,11 14,10 9,-4c-9,-23 9,-20 24,4c8,13 8,20 2,20c-7,0 -7,7 0,21c7,11 9,31 6,44c-6,22 -10,23 -68,20c-35,-1 -93,-10 -129,-19c-52,-14 -69,-22 -78,-42c-6,-14 -11,-30 -11,-35c0,-6 -11,-34 -24,-62c-24,-54 -68,-86 -126,-93c-54,-6 -130,-23 -150,-34c-18,-10 -25,-8 -46,13c-13,14 -37,27 -52,30c-27,6 -43,30 -57,92c-3,17 -14,38 -23,48c-9,10 -17,37 -18,60c-1,23 -6,53 -11,67c-6,14 -9,34 -7,45c16,99 54,213 84,255c14,20 22,49 25,91c6,91 28,118 159,196c146,88 198,107 223,82c5,-5 33,-11 62,-11c35,-1 51,-6 51,-15c0,-7 6,-14 13,-15c42,-5 73,-3 79,6c7,11 40,18 34,8c-2,-4 -1,-15 3,-25c6,-16 8,-16 26,-2c20,15 20,15 -3,33c-22,17 -22,18 -3,34c10,8 20,21 23,28c6,19 216,22 246,4c12,-8 22,-21 22,-28c0,-25 33,-28 62,-6c34,25 58,23 74,-8c6,-12 18,-30 27,-40c21,-23 21,-45 2,-81c-7,-15 -13,-39 -11,-52c7,-61 19,-109 27,-109c5,0 9,-7 9,-15c0,-8 9,-23 20,-32c11,-10 20,-30 20,-45c0,-21 4,-26 16,-21c9,3 20,0 25,-8c8,-12 11,-12 18,1c5,8 10,20 11,25c0,6 7,19 14,30c27,44 36,99 25,163c-5,35 -7,67 -4,72c3,4 -2,37 -11,71c-32,126 23,236 151,299c16,8 48,34 71,58c27,28 49,42 67,42c14,0 29,5 32,10c13,20 85,60 109,60c30,0 56,28 37,39c-9,6 0,15 28,28c38,19 40,19 30,2c-5,-11 -17,-19 -27,-20c-9,0 -12,-3 -5,-5c7,-3 21,0 32,6c18,9 21,20 21,78c0,38 -5,73 -10,78c-8,8 -7,20 1,40c6,16 13,38 15,48c6,34 21,38 19,6c-1,-17 -7,-36 -13,-42c-7,-7 -12,-21 -12,-32c0,-19 3,-17 24,9c13,16 22,34 19,39c-4,5 -1,6 5,2c7,-4 23,5 38,21c20,22 25,35 21,60c-3,18 -1,35 4,38c5,4 9,-1 9,-9c0,-23 6,-20 54,19c23,19 48,50 55,69c13,31 20,35 70,45c70,15 126,39 96,41c-11,1 1,8 28,15c26,7 56,11 66,8c10,-3 22,0 25,6c4,6 15,11 26,11c21,0 35,29 20,44c-7,7 -10,5 -10,-7c0,-24 -19,-21 -29,6c-7,15 -5,25 5,33c8,6 14,18 14,26c0,30 65,74 150,103c47,16 95,35 107,42c12,8 35,15 52,15c29,1 45,17 19,19c-18,1 23,16 58,22c16,3 41,10 56,16c16,6 30,7 33,1c3,-5 -25,-24 -61,-42c-58,-28 -68,-37 -70,-62c-2,-16 3,-35 11,-42c16,-16 45,-19 45,-4c0,6 9,10 20,10c11,0 20,4 20,9c0,14 78,63 89,56c6,-3 16,-3 23,1c22,14 172,63 177,59c2,-3 10,4 18,15c8,11 21,20 30,20c22,0 73,32 73,47c0,7 -7,13 -15,13c-18,0 -19,4 -3,30c10,15 10,22 0,32c-9,9 -25,-2 -72,-50c-33,-34 -60,-58 -60,-52c0,6 -9,6 -22,1c-27,-9 -111,6 -103,19c7,11 55,9 55,-2c0,-4 9,-8 20,-8c11,0 20,4 20,10c0,5 12,16 28,24c27,15 26,15 -28,16c-64,0 -83,9 -74,35c5,13 3,16 -7,13c-8,-3 -13,-10 -12,-16c2,-6 -4,-9 -12,-6c-19,8 -19,-10 0,-30c20,-20 19,-25 -5,-19c-21,6 -32,34 -27,67c2,11 19,35 38,53l34,34l-27,-6c-41,-10 -34,3 12,21c80,32 58,90 -33,87c-61,-2 -193,-43 -253,-78c-56,-33 -62,-32 -22,4c39,33 113,71 141,71c11,0 32,13 47,29c14,17 38,35 54,41c17,6 111,10 238,9c126,-1 213,3 217,9c3,5 16,12 29,16c12,4 34,18 50,30c33,27 84,46 126,46l31,0l-45,-44c-72,-69 -120,-123 -120,-135c0,-6 -7,-11 -15,-11c-9,0 -18,-7 -21,-15c-4,-8 -10,-12 -15,-9c-9,5 -39,-18 -39,-31c0,-3 10,-4 23,0c12,3 3,-6 -21,-21c-70,-43 -55,-54 83,-59c255,-11 235,-8 219,-26c-17,-18 -18,-39 -3,-39c5,0 8,4 4,9c-3,5 -1,13 5,16c6,4 10,3 9,-2c-5,-30 2,-40 26,-35c38,7 98,102 65,102c-5,0 -10,-4 -10,-10c0,-5 -4,-10 -8,-10c-5,0 -9,7 -9,15c0,8 4,12 8,10c3,-3 12,2 19,10c10,12 9,15 -4,15c-9,0 -24,-9 -33,-20c-10,-11 -22,-20 -27,-20c-5,0 1,11 13,24c17,18 19,25 9,29c-7,3 0,4 17,4c20,-2 30,3 33,15c2,12 -2,15 -17,11c-25,-6 -30,21 -6,31c22,8 18,25 -7,36c-13,5 -17,9 -10,9c7,1 10,6 6,13c-5,7 -11,5 -21,-7c-7,-11 -13,-13 -13,-7c0,7 -7,12 -15,12c-8,0 -15,-3 -15,-8c0,-4 -13,-8 -29,-8c-21,-1 -28,2 -24,12c3,8 11,14 19,14c27,0 14,18 -18,24l-33,7l34,29c23,19 37,26 42,19c9,-16 21,5 13,25c-3,9 -2,16 4,16c5,0 12,7 16,15c4,11 -2,15 -22,15c-19,0 -23,-3 -14,-9c9,-5 3,-8 -17,-7c-17,1 -31,2 -31,3c0,2 20,12 45,24c42,20 49,28 61,81c16,64 13,77 -18,83c-34,8 -54,45 -32,58c23,13 -13,42 -48,38c-18,-1 -28,2 -26,10c3,14 -46,30 -70,22c-10,-3 -13,-1 -7,4c19,15 16,35 -9,58c-24,22 -24,24 -7,30c19,6 26,50 10,61c-5,3 -2,16 7,29c14,22 14,24 -4,34c-14,7 -20,21 -20,44c0,19 -7,47 -15,63c-8,17 -13,47 -10,72c2,23 1,42 -3,42c-12,0 -35,-30 -29,-40c3,-5 0,-7 -8,-4c-8,3 -39,-19 -72,-51c-32,-30 -64,-55 -70,-55c-6,0 -30,-9 -54,-21c-36,-17 -45,-18 -59,-7c-36,29 -53,50 -55,67c-1,20 29,87 43,96c6,4 8,11 4,16c-3,5 -2,8 3,7c4,-2 8,1 8,6c0,6 -13,11 -30,13c-16,1 -41,5 -53,8c-20,5 -22,8 -11,21c10,13 10,17 -2,24c-29,18 -63,46 -78,63c-9,9 -21,17 -28,17c-17,0 -17,-20 0,-20c6,0 4,-5 -6,-11c-18,-11 -34,-9 -153,13c-58,10 -62,10 -83,-11c-12,-12 -24,-33 -25,-46c-3,-32 -24,-55 -63,-72c-40,-16 -43,-26 -7,-17c24,6 26,5 19,-17c-5,-13 -8,-30 -8,-36c0,-7 -3,-13 -7,-13c-4,0 -27,-16 -51,-35c-24,-19 -48,-35 -52,-35c-10,0 -37,-26 -37,-34c0,-3 4,-6 10,-6c18,0 60,-43 60,-62c0,-25 -37,-102 -58,-121c-38,-34 -155,-89 -212,-99l-60,-10l5,-44c3,-26 1,-44 -5,-44c-5,0 -10,-11 -10,-24c0,-14 -4,-27 -8,-30c-4,-2 -9,-19 -10,-38c-2,-23 -12,-40 -32,-56c-17,-13 -28,-28 -25,-33c4,-5 2,-9 -4,-9c-5,0 -11,6 -14,13c-3,8 -12,5 -30,-12c-27,-25 -47,-21 -47,9c0,10 -8,25 -17,32c-10,7 -19,20 -19,28c-1,8 -5,23 -9,32c-6,15 -3,16 22,9c57,-17 58,-17 58,9c0,22 -4,25 -31,24c-26,-1 -31,1 -27,17c3,11 9,22 14,25c5,3 9,16 9,30c0,13 4,24 8,24c13,0 43,58 33,64c-5,3 -44,8 -87,11c-46,3 -84,11 -93,19c-9,8 -35,20 -58,28c-24,7 -43,19 -43,25c0,18 -34,50 -62,58c-12,4 -38,13 -56,21c-25,12 -40,13 -70,5c-20,-6 -40,-11 -43,-11c-8,0 3,52 20,93c15,37 7,47 -35,47c-19,0 -34,3 -34,6c0,9 91,124 98,124c4,0 34,20 66,45c33,24 72,47 87,50c15,4 30,12 33,20c3,8 21,17 40,21c20,3 36,10 36,15c0,5 6,8 13,7c6,-2 11,3 9,11c-3,13 6,13 53,-4c14,-5 16,-4 6,3c-10,7 -5,12 21,21c18,6 40,20 48,31c8,11 22,20 30,20c9,0 21,5 27,11c7,7 33,13 60,15c54,5 159,53 197,91c22,22 87,63 100,63c3,0 -22,-26 -55,-57c-32,-32 -59,-62 -59,-68c0,-6 -20,-17 -45,-24c-54,-16 -55,-37 -1,-33c34,3 37,2 31,-17c-8,-28 17,-28 68,-1c20,11 44,20 52,20c8,0 22,9 32,20c21,21 65,18 57,-5c-8,-20 68,-29 110,-14c29,10 33,16 25,30c-5,10 -15,16 -23,13c-8,-3 -16,4 -19,18c-6,21 -43,50 -90,70c-13,6 -16,14 -11,35c4,16 9,30 11,33c6,7 22,-23 17,-32c-5,-7 1,-9 39,-12c6,-1 12,8 13,19c3,60 3,59 23,34c18,-22 20,-22 26,-6c4,9 15,17 24,17c9,0 29,7 45,15c15,8 34,15 40,15c7,0 23,11 36,25c18,19 20,27 12,38c-14,17 9,41 54,57c16,6 34,22 41,35c10,22 9,25 -7,25c-35,0 -31,19 6,29c28,8 43,7 65,-4c16,-9 40,-12 57,-9c37,7 53,-13 18,-22c-30,-7 -56,-34 -35,-34c9,-1 5,-8 -10,-21c-13,-11 -20,-23 -16,-27c4,-4 10,-1 12,6c3,6 11,12 19,12c13,0 18,12 15,33c0,4 4,7 9,7c16,0 90,51 90,62c0,6 -8,7 -17,3c-37,-15 -53,-17 -53,-6c0,6 11,11 25,11c17,0 29,7 35,23c5,12 9,16 9,10c1,-7 8,-13 16,-13c9,0 12,-6 8,-17c-4,-11 -3,-14 5,-9c7,4 12,3 12,-1c0,-5 12,-16 28,-25l27,-17l-28,-1c-16,0 -26,4 -22,9c9,16 -15,24 -31,11c-10,-10 -11,-16 -3,-26c6,-7 7,-18 3,-25c-5,-9 2,-10 28,-5c27,5 35,3 35,-9c0,-11 -11,-15 -42,-15c-67,0 -140,-48 -120,-80c15,-24 145,7 145,35c0,7 6,18 14,24c11,9 14,8 12,-6c-1,-14 8,-19 37,-21c27,-2 37,1 37,12c0,8 -10,16 -22,18c-12,2 -24,10 -26,18c-4,13 -3,13 10,2c13,-10 17,-10 21,0c4,10 6,10 6,1c1,-7 10,-13 21,-13c15,0 19,-5 16,-22c-3,-13 -5,-31 -5,-40c-1,-10 -9,-18 -18,-18c-9,0 -24,-6 -32,-13c-9,-8 -38,-22 -66,-32c-62,-22 -73,-31 -57,-47c17,-17 15,-27 -5,-27c-10,0 -35,-4 -55,-9c-23,-6 -56,-6 -89,0c-43,8 -58,6 -88,-9c-53,-27 -75,-51 -62,-67c17,-20 58,-25 104,-12c23,7 58,11 77,10c19,-1 45,-2 58,-3c13,0 20,-5 17,-11c-3,-5 1,-10 10,-10c10,0 15,-7 13,-17c-2,-10 7,-29 19,-43c13,-14 23,-32 23,-42c0,-24 15,-30 44,-17c21,10 29,8 52,-10c15,-11 37,-21 50,-21c13,0 46,-9 74,-20c27,-11 50,-18 50,-15c0,3 9,-4 21,-16c24,-24 50,-11 42,21c-6,21 -33,28 -33,9c0,-6 -6,-9 -12,-6c-7,2 -12,13 -10,23c1,11 -8,29 -23,42c-14,12 -25,26 -25,31c0,5 -9,11 -20,14c-11,3 -20,13 -20,23c0,16 1,16 20,-1c11,-10 23,-15 27,-12c3,4 13,-2 21,-14c12,-17 16,-18 30,-7c9,7 13,8 9,2c-4,-7 3,-14 17,-18c13,-3 26,-15 29,-26c6,-22 31,-27 43,-9c3,6 0,15 -7,20c-10,6 -11,9 -1,9c6,0 12,9 12,20c0,12 5,17 14,14c7,-3 21,2 30,12c15,14 15,19 2,38c-10,16 -11,27 -4,40c11,20 -3,36 -33,36c-17,0 -29,18 -35,53c-2,10 2,17 11,17c18,0 19,11 3,29c-11,11 -10,12 0,7c7,-4 19,-3 25,3c16,13 60,-24 65,-54c4,-23 22,-48 30,-41c2,3 13,1 23,-4c23,-13 49,-2 59,24c7,18 14,21 44,18c23,-3 36,0 36,8c0,15 25,40 42,40c7,0 24,9 37,19l23,18l-28,20c-16,11 -35,18 -43,15c-8,-3 -11,0 -7,7c4,6 1,11 -7,11c-7,0 -24,11 -37,26c-17,17 -31,23 -47,19c-12,-3 -25,0 -29,6c-3,6 -22,17 -40,25c-19,8 -34,18 -34,22c0,13 47,35 59,28c19,-12 33,4 19,22c-10,12 -10,16 0,19c33,12 -9,67 -63,82c-21,6 -42,8 -47,5c-4,-3 -8,2 -8,11c0,9 -4,14 -9,11c-5,-3 -11,3 -14,14c-4,16 -14,20 -49,20c-24,0 -50,-6 -58,-12c-12,-11 -12,-10 -1,5c10,12 10,17 2,17c-7,0 -9,5 -6,10c3,6 -1,10 -9,10c-9,0 -16,7 -16,15c0,8 -10,17 -22,19c-13,3 -32,7 -43,9c-14,3 -12,5 8,6c15,1 27,7 27,14c0,29 -35,44 -115,50c-65,5 -83,3 -97,-10c-17,-15 -18,-15 -18,0c0,21 -49,22 -140,2c-76,-17 -95,-18 -60,-3l25,10l-25,10c-68,26 -260,-33 -342,-106c-10,-9 -21,-16 -25,-16c-9,-1 -47,-50 -41,-54c1,-2 28,-8 58,-13l55,-11l-59,2c-67,1 -79,-11 -45,-43c15,-14 30,-19 42,-15c13,4 17,2 13,-5c-8,-12 1,-14 59,-13c22,1 33,-1 25,-5c-24,-10 -40,-30 -43,-55c-2,-13 -10,-23 -18,-23c-8,0 -30,-13 -50,-28c-37,-28 -55,-35 -44,-17c3,6 0,10 -8,10c-17,0 -53,-38 -43,-47c3,-4 -8,-13 -26,-20c-25,-11 -33,-11 -40,-1c-13,21 -4,42 24,56c58,28 38,94 -23,73c-28,-9 -30,-9 -24,9c5,16 2,20 -14,20c-23,0 -30,35 -10,42c9,3 9,10 0,27c-9,17 -10,26 -1,36c15,18 3,55 -18,56c-9,0 2,8 26,18c24,9 47,22 50,28c4,6 32,13 62,15c68,7 221,75 199,89c-8,5 -32,9 -54,9c-22,0 -58,3 -80,6c-48,6 -121,-8 -118,-24c2,-6 -4,-9 -13,-5c-8,3 -25,-3 -37,-14c-12,-11 -30,-23 -41,-27c-12,-4 -17,-13 -13,-25c6,-23 -23,-52 -70,-71c-18,-7 -33,-15 -33,-19c0,-4 -9,-7 -21,-8c-28,-2 -69,-30 -69,-47c0,-7 -11,-19 -25,-26c-17,-9 -25,-21 -23,-34c2,-16 -3,-22 -25,-24c-17,-2 -36,3 -47,13c-15,13 -22,14 -46,3c-16,-7 -33,-18 -37,-25c-4,-7 -26,-16 -47,-19c-43,-7 -55,-30 -18,-36c12,-2 23,-9 26,-17c3,-9 -2,-11 -17,-6c-15,4 -27,-1 -43,-17c-21,-22 -32,-24 -136,-26c-92,-1 -114,1 -119,14c-3,9 -12,12 -24,9c-27,-9 -48,6 -23,16c18,7 18,7 0,14c-11,5 -21,3 -26,-5c-6,-9 -9,-7 -12,10c-1,13 -9,25 -17,28c-8,3 -11,0 -8,-5c3,-5 -7,-8 -24,-5l-30,4l27,14c19,10 31,11 38,4c13,-13 29,-13 21,0c-3,5 0,7 9,4c8,-3 17,-11 19,-18c3,-8 28,-13 67,-14c35,-1 69,-7 77,-13c11,-9 19,-7 36,10c13,11 29,21 35,21c14,0 15,6 3,29c-7,13 -5,17 10,18c10,1 19,-5 19,-13c0,-8 3,-14 6,-14c13,0 64,42 64,53c0,11 -42,34 -92,50c-24,8 -23,24 2,37c11,6 20,17 20,25c0,34 44,81 96,104c30,13 54,27 54,31c0,11 -27,20 -60,20c-35,0 -90,-21 -72,-27c6,-3 12,-9 12,-14c0,-6 -8,-6 -19,1c-39,20 -81,12 -113,-22c-17,-18 -34,-43 -39,-55c-5,-13 -13,-23 -18,-23c-11,0 -9,19 3,38c5,8 1,21 -10,33c-21,23 -64,26 -64,4c0,-19 -14,-19 -67,1c-34,13 -48,14 -75,5c-26,-9 -30,-9 -20,1c17,17 15,28 -6,28c-10,0 -25,11 -32,25c-16,30 -38,38 -110,41c-30,1 -98,5 -150,7c-52,3 -108,3 -123,0zm1928,-88c-16,-9 -38,-30 -49,-48l-18,-32l-10,25c-5,13 -5,26 -1,27c5,2 24,12 43,23c19,10 42,19 50,19c8,0 2,-6 -15,-14zm278,-16c5,-19 11,-21 49,-16c37,5 39,5 18,-5c-14,-5 -45,-11 -70,-12c-44,-2 -45,-1 -27,17c10,10 15,22 12,27c-4,6 -2,10 3,10c5,0 12,-10 15,-21zm-370,-56c-9,-3 -10,-10 -3,-24c11,-20 -3,-28 -15,-9c-9,15 2,40 17,39c10,0 10,-2 1,-6zm592,-13c-3,-5 -14,-10 -23,-9c-14,0 -13,2 3,9c27,11 27,11 20,0zm145,-80c-8,-5 -24,-9 -35,-9c-16,1 -16,2 5,9c35,11 48,11 30,0zm104,-42c-5,-8 -2,-9 11,-4c11,4 22,2 26,-6c6,-10 -9,-16 -58,-25c-78,-14 -95,-11 -28,6c25,6 44,15 44,19c-2,12 1,22 7,22c3,0 2,-5 -2,-12zm-997,-4c-3,-3 -12,-4 -19,-1c-8,3 -5,6 6,6c11,1 17,-2 13,-5zm953,-8c0,-2 -9,-6 -20,-9c-11,-3 -18,-1 -14,4c5,9 34,13 34,5zm-3373,-12c-3,-3 -12,-4 -19,-1c-8,3 -5,6 6,6c11,1 17,-2 13,-5zm2603,-4c0,-5 -10,-10 -22,-10c-19,0 -20,2 -8,10c19,13 30,13 30,0zm148,3c-10,-2 -26,-2 -35,0c-10,3 -2,5 17,5c19,0 27,-2 18,-5zm-2828,-13c-8,-5 -22,-9 -30,-9c-10,0 -8,3 5,9c27,12 43,12 25,0zm2180,0c0,-5 -4,-10 -10,-10c-5,0 -10,5 -10,10c0,6 5,10 10,10c6,0 10,-4 10,-10zm-170,-22c0,-4 -11,-15 -25,-24c-31,-20 -33,-38 -4,-31c12,3 18,2 13,-2c-11,-9 -87,-36 -127,-45c-17,-4 -31,-16 -37,-31c-7,-17 -14,-23 -26,-18c-16,6 -16,7 1,19c10,8 14,18 9,26c-4,7 -4,10 1,6c10,-9 47,10 40,21c-2,5 16,14 41,20c25,6 42,16 39,21c-4,6 -11,7 -17,4c-6,-4 -8,1 -6,12c2,13 11,18 25,16c12,-2 24,1 27,7c7,11 46,11 46,-1zm-2230,-13c-46,-18 -72,-18 -40,-1c14,8 36,14 50,14c22,0 20,-1 -10,-13zm3750,7c0,-4 -16,-6 -35,-4c-19,2 -35,6 -35,8c0,2 16,4 35,4c19,0 35,-4 35,-8zm-1316,-34c-6,-21 -25,-41 -31,-34c-5,5 22,56 30,56c5,0 5,-10 1,-22zm781,2c-3,-5 -11,-10 -16,-10c-6,0 -7,5 -4,10c3,6 11,10 16,10c6,0 7,-4 4,-10zm-305,-10c0,-5 -5,-10 -11,-10c-5,0 -7,5 -4,10c3,6 8,10 11,10c2,0 4,-4 4,-10zm367,4c-3,-3 -12,-4 -19,-1c-8,3 -5,6 6,6c11,1 17,-2 13,-5zm-692,-63c-3,-6 -11,-11 -17,-11c-6,0 -6,6 2,15c14,17 26,13 15,-4zm-625,-5c0,-2 -7,-6 -15,-10c-8,-3 -15,-1 -15,4c0,6 7,10 15,10c8,0 15,-2 15,-4zm1338,-3c-10,-2 -26,-2 -35,0c-10,3 -2,5 17,5c19,0 27,-2 18,-5zm-1978,-49c0,-2 -9,-4 -21,-4c-11,0 -18,4 -14,10c5,8 35,3 35,-6zm697,-10c-3,-3 -12,-4 -19,-1c-8,3 -5,6 6,6c11,1 17,-2 13,-5zm-1392,-14c-11,-4 -35,-14 -54,-21c-33,-12 -33,-13 -10,-22c13,-5 47,-6 74,-2l50,6l-32,-20c-18,-11 -48,-20 -71,-19c-48,0 -84,-10 -77,-23c5,-8 -16,-14 -38,-10c-4,1 -24,-6 -44,-14c-20,-8 -38,-13 -41,-10c-8,8 69,37 84,31c7,-3 16,0 20,6c12,19 -76,0 -108,-24c-24,-16 -34,-18 -51,-10c-18,9 -19,11 -4,11c9,1 17,6 17,11c0,6 9,10 19,10c11,0 26,7 35,15c8,8 23,14 33,13c10,0 26,0 37,0c37,4 -4,32 -43,30l-36,-1l33,-4c17,-2 32,-8 32,-14c0,-5 -1,-9 -2,-9c-2,1 -28,7 -58,14l-55,12l80,13c44,7 109,19 145,26c76,16 93,17 65,5zm2785,1c0,-5 12,-12 26,-15c35,-9 20,-22 -33,-29c-36,-4 -41,-3 -35,12c12,31 42,54 42,32zm514,-10c4,-5 -3,-7 -14,-4c-23,6 -26,13 -6,13c8,0 17,-4 20,-9zm-5657,-17c-3,-3 -12,-4 -19,-1c-8,3 -5,6 6,6c11,1 17,-2 13,-5zm4280,-36c0,-18 -2,-27 -4,-20c-3,6 -14,12 -25,12c-12,0 -18,3 -15,7c4,3 2,12 -4,20c-9,10 -5,13 18,13c27,0 30,-3 30,-32zm-242,-34c20,-15 20,-16 -4,-12c-14,2 -26,9 -29,16c-5,16 9,15 33,-4zm-4250,-64c-3,-5 -12,-10 -18,-10c-7,0 -6,4 3,10c19,12 23,12 15,0zm5015,-11c0,-5 -7,-9 -15,-9c-9,0 -12,6 -9,15c6,15 24,11 24,-6zm125,-79c-3,-5 -10,-10 -16,-10c-5,0 -9,5 -9,10c0,6 7,10 16,10c8,0 12,-4 9,-10zm-2592,-119c17,-15 68,-9 132,13c11,4 -2,-5 -30,-20c-27,-15 -72,-31 -100,-35c-27,-5 -55,-15 -60,-23c-13,-17 -163,-31 -185,-16c-13,9 -13,10 0,11c8,1 23,0 33,-1c10,-1 30,6 45,16c15,10 43,20 62,24c31,5 35,9 38,37c3,30 5,32 25,20c12,-7 30,-18 40,-26zm2904,-37c-3,-3 -12,-4 -19,-1c-8,3 -5,6 6,6c11,1 17,-2 13,-5zm-5157,-40c0,-2 -7,-4 -15,-4c-8,0 -15,4 -15,10c0,5 7,7 15,4c8,-4 15,-8 15,-10zm-83,-10c-3,-3 -12,-4 -19,-1c-8,3 -5,6 6,6c11,1 17,-2 13,-5zm-42,-14c-9,-14 -45,-32 -45,-23c0,7 24,22 48,32c2,0 0,-3 -3,-9zm-322,-97c-7,-2 -21,-2 -30,0c-10,3 -4,5 12,5c17,0 24,-2 18,-5zm57,3c0,-2 -9,-6 -20,-9c-11,-3 -18,-1 -14,4c5,9 34,13 34,5zm1018,-81c-3,-3 -9,2 -12,12c-6,14 -5,15 5,6c7,-7 10,-15 7,-18zm17,-25c3,-5 2,-10 -4,-10c-5,0 -13,5 -16,10c-3,6 -2,10 4,10c5,0 13,-4 16,-10zm-50,-20c-4,-6 -2,-17 4,-24c8,-9 7,-13 -4,-13c-8,0 -12,4 -9,8c2,4 -1,11 -7,15c-8,4 -7,9 2,15c18,11 21,11 14,-1zm-1285,-10c0,-5 -2,-10 -4,-10c-3,0 -8,5 -11,10c-3,6 -1,10 4,10c6,0 11,-4 11,-10zm1370,-45c-14,-17 -46,-20 -54,-6c-4,5 2,7 13,4c10,-3 22,0 25,6c4,6 12,11 18,11c7,0 6,-6 -2,-15zm-14,-37c4,-6 3,-8 -4,-4c-6,3 -15,-1 -20,-10c-6,-11 -11,-13 -16,-5c-4,6 -2,11 4,11c6,0 8,5 5,10c-3,6 1,10 9,10c8,0 18,-5 22,-12zm-66,-32c0,-2 -8,-10 -17,-17c-16,-13 -17,-12 -4,4c13,16 21,21 21,13zm40,-41c0,-8 -2,-15 -4,-15c-2,0 -6,7 -10,15c-3,8 -1,15 4,15c6,0 10,-7 10,-15zm67,9c-3,-3 -12,-4 -19,-1c-8,3 -5,6 6,6c11,1 17,-2 13,-5zm-119,-77c-6,-12 -12,-23 -13,-24c-1,-2 -2,10 -2,26c0,20 4,28 13,24c11,-4 11,-10 2,-26zm2098,-118c8,-14 -16,-159 -27,-159c-5,0 -9,3 -9,8c0,4 -4,13 -9,21c-7,11 -13,12 -24,3c-10,-9 -14,-9 -14,1c0,6 -3,22 -7,35c-6,17 -3,24 16,31l23,10l-22,0c-30,1 -29,7 5,36c29,26 57,32 68,14zm2504,7c0,-2 -15,-9 -32,-15c-30,-10 -31,-9 -14,4c18,14 46,20 46,11zm-4580,-36c0,-5 -2,-10 -4,-10c-3,0 -8,5 -11,10c-3,6 -1,10 4,10c6,0 11,-4 11,-10zm2050,-175c0,-2 -13,-18 -30,-35c-19,-19 -30,-25 -30,-16c0,8 12,24 26,35c27,21 34,25 34,16zm-1944,-121c0,-11 11,-21 32,-28c26,-9 30,-14 20,-24c-9,-9 -9,-12 0,-12c7,0 12,-10 12,-22c0,-17 -3,-19 -9,-9c-5,8 -14,10 -21,6c-8,-5 -11,-3 -8,6c3,8 -7,26 -21,40c-28,27 -37,59 -16,59c7,0 12,-7 11,-16zm2477,-90c9,-3 12,-14 10,-29c-6,-27 25,-49 54,-38c15,6 16,4 6,-9c-7,-8 -10,-18 -7,-21c4,-3 3,-14 -1,-24c-10,-23 -12,-29 -14,-48c0,-8 -6,-15 -12,-15c-6,0 -9,7 -5,15c4,12 -3,13 -42,8c-26,-3 -55,-10 -64,-15c-22,-11 -65,0 -72,18c-3,8 -13,14 -23,14c-12,0 -7,7 16,21c37,22 35,35 -4,25c-16,-4 -23,-11 -19,-18c4,-7 3,-8 -4,-4c-6,4 -26,-1 -44,-10c-18,-10 -46,-21 -63,-25c-16,-4 -41,-11 -55,-15c-25,-6 -25,-6 -5,10c19,17 18,17 -22,13c-24,-3 -43,-4 -43,-2c0,9 111,64 153,75c26,7 50,17 53,21c3,5 10,9 17,9c6,0 2,-7 -9,-15c-10,-8 -14,-15 -7,-15c21,0 63,19 63,29c0,6 -6,8 -14,5c-8,-3 -17,0 -22,7c-4,7 -3,10 2,6c5,-3 34,3 64,13c57,20 88,24 113,14zm-2448,-35c-4,-5 -21,-8 -38,-8c-21,1 -25,3 -12,6c11,3 24,9 29,14c11,10 28,1 21,-12zm3840,-29c8,-13 -5,-13 -25,0c-13,8 -13,10 2,10c9,0 20,-4 23,-10zm105,-136c0,-2 -9,-4 -21,-4c-11,0 -18,4 -14,10c5,8 35,3 35,-6zm-1315,-19c6,-2 -11,-4 -37,-4c-27,-1 -48,3 -48,7c0,7 62,5 85,-3zm-185,-11c0,-9 -63,-68 -76,-72c-33,-9 -44,-17 -77,-56c-41,-49 -57,-84 -57,-123c0,-17 -15,-40 -44,-69c-48,-49 -75,-56 -77,-21c-3,58 41,141 126,235c42,47 51,72 15,40c-8,-7 -4,0 10,15c15,17 31,26 42,24c9,-3 25,1 35,8c26,18 103,32 103,19zm170,-30c33,-14 36,-14 52,5c25,31 54,27 67,-10c24,-69 -20,-108 -56,-49c-22,38 -42,40 -35,4c4,-21 -2,-33 -26,-54c-17,-14 -34,-38 -37,-53c-6,-22 -42,-57 -59,-57c-3,0 -4,19 -3,43c2,37 0,42 -18,39c-11,-2 -27,-10 -36,-18c-8,-8 -19,-14 -24,-14c-4,0 13,20 39,45c26,25 44,50 41,55c-3,5 -1,11 5,15c17,11 11,25 -15,37c-14,6 -25,18 -25,26c0,11 9,13 48,7c26,-4 63,-13 82,-21zm24,14c-3,-4 -9,-8 -15,-8c-5,0 -9,4 -9,8c0,5 7,9 15,9c8,0 12,-4 9,-9zm326,-155c-1,-33 -61,-56 -125,-48c-28,4 -68,2 -88,-3c-48,-13 -48,2 1,25c24,12 60,18 105,18c37,0 67,3 67,8c0,4 9,7 20,7c11,0 20,-3 20,-7zm-230,-98c0,-7 -79,-46 -150,-72c-97,-37 -138,-45 -160,-33c-26,14 -26,30 0,30c11,0 20,-6 20,-12c0,-10 2,-10 8,-1c4,7 34,26 67,42c48,25 67,29 105,25c32,-4 41,-3 31,4c-11,8 -7,11 20,15c19,2 40,5 47,5c6,1 12,0 12,-3zm-255,-55c-3,-5 -15,-10 -26,-10c-10,0 -19,5 -19,10c0,6 12,10 26,10c14,0 23,-4 19,-10zm280,-361c11,-17 -1,-21 -15,-4c-8,9 -8,15 -2,15c6,0 14,-5 17,-11zm0,-169c3,-6 -1,-7 -9,-4c-18,7 -21,14 -7,14c6,0 13,-4 16,-10zm-1180,-500c3,-5 -1,-10 -10,-10c-9,0 -13,5 -10,10c3,6 8,10 10,10c2,0 7,-4 10,-10zm113,-1624c10,-23 9,-24 -24,-23c-29,2 -32,4 -18,14c16,12 16,13 1,19c-10,3 -17,15 -17,25c0,18 2,18 23,4c13,-8 29,-26 35,-39z"/>
   <path id="svg_48" d="m5659.02307,13482.75917c-27,-5 -68,-10 -90,-11c-22,-2 -58,-9 -79,-16c-31,-11 -36,-15 -23,-23c24,-13 9,-38 -24,-38c-16,0 -29,5 -29,10c0,13 -36,13 -61,0c-25,-14 -14,-35 32,-58c25,-12 34,-23 33,-40c-1,-27 1,-27 124,-1c51,10 70,20 107,56c25,23 45,52 45,63c0,11 7,20 15,20c16,0 17,6 7,30c-6,13 -16,14 -57,8zm15,-69c13,-9 13,-10 -2,-6c-9,3 -18,1 -21,-6c-2,-6 -6,-4 -10,6c-7,19 10,23 33,6z"/>
   <path id="svg_49" d="m1227.02307,12310.75917c-28,-12 -55,-25 -59,-29c-4,-4 -17,-7 -29,-7c-13,0 -28,-7 -35,-15c-7,-8 -16,-13 -20,-10c-13,8 -70,-16 -80,-34c-14,-27 3,-45 36,-36c16,5 36,9 44,11c8,2 23,7 35,13c11,6 37,17 58,25c32,13 42,26 39,56c0,3 15,4 34,2c31,-4 34,-2 34,22c0,14 -1,26 -2,25c-2,0 -26,-11 -55,-23z"/>
   <path id="svg_50" d="m4414.02307,9313.75917c-14,-4 -46,-13 -72,-20c-26,-6 -55,-20 -64,-30c-9,-11 -24,-19 -33,-19c-14,0 -14,-2 -1,-10c13,-8 11,-11 -7,-16c-30,-8 -29,-20 1,-26c14,-3 34,3 47,13c13,10 31,19 40,19c9,0 26,9 39,20c16,14 36,20 64,19c23,-1 33,-3 24,-6c-10,-2 -18,-8 -18,-13c0,-9 62,-30 90,-30c8,0 38,-11 65,-25c30,-14 59,-22 73,-18c18,4 22,1 22,-20c0,-13 7,-30 15,-37c8,-7 15,-18 15,-25c0,-7 7,-18 15,-25c9,-7 14,-19 11,-26c-7,-17 204,-12 249,5l29,12l-29,24c-17,13 -42,24 -56,25c-18,0 -26,5 -25,16c1,11 -13,21 -42,29c-42,13 -102,63 -102,87c0,6 -3,9 -6,5c-4,-3 -13,0 -21,8c-17,18 -47,20 -37,3c5,-8 2,-9 -10,-5c-10,4 -24,7 -32,7c-8,0 -13,5 -11,12c6,30 -172,66 -233,47zm365,-229c4,-6 -7,-10 -24,-10c-17,0 -31,5 -31,10c0,6 11,10 24,10c14,0 28,-4 31,-10z"/>
   <path id="svg_51" d="m5076.02307,9034.75917c-33,-16 -34,-30 0,-30c13,0 18,-8 18,-28c0,-15 5,-33 12,-40c19,-19 -18,-26 -79,-15c-48,9 -55,8 -63,-8c-8,-14 -4,-21 22,-33c34,-17 52,-21 44,-8c-2,4 22,8 55,7c55,0 63,-3 81,-28l20,-28l25,35c24,36 38,44 45,26c2,-6 14,-4 31,5c29,15 90,12 95,-5c2,-5 11,-10 20,-10c8,0 12,3 9,7c-4,3 1,12 11,19c16,12 14,16 -20,49c-20,19 -46,35 -57,35c-12,0 -21,6 -21,14c0,20 -82,40 -136,31c-33,-5 -50,-3 -62,8c-15,12 -22,11 -50,-3z"/>
  </g>
 </g>
</svg>