<svg width="56" height="68" xmlns="http://www.w3.org/2000/svg" preserveAspectRatio="xMidYMid meet" version="1.0">
 <metadata>Created by potrace 1.7, written by Peter Selinger
  2001-2005</metadata>

 <g>
  <title>Layer 1</title>
  <g id="svg_23" fill="#000000" transform="translate(0 239) scale(0.016963 -0.016963)">
   <path id="svg_24" d="m1828.38861,13926.31595c-19,-11 -40,-24 -47,-29c-8,-7 -14,-7 -18,-1c-7,11 -45,14 -45,4c0,-17 44,-64 60,-64c28,0 50,-11 50,-25c0,-29 34,-43 93,-39c42,3 57,2 52,-6c-4,-7 -17,-9 -30,-6c-14,4 -28,0 -35,-9c-7,-9 -21,-13 -30,-10c-20,6 -50,-3 -50,-16c0,-5 11,-14 25,-19c14,-5 25,-16 25,-25c0,-8 5,-15 11,-15c5,0 7,-5 4,-10c-9,-15 5,-51 16,-44c6,3 17,0 25,-7c8,-6 18,-9 21,-5c4,4 2,10 -4,14c-7,5 -9,13 -3,21c7,12 14,11 45,-3c20,-10 45,-25 55,-33c10,-9 32,-18 48,-19c39,-5 187,-76 186,-89c-1,-5 5,-19 12,-30c8,-11 14,-27 14,-37c0,-10 3,-18 8,-18c4,0 7,-16 8,-35c0,-27 -3,-35 -17,-35c-19,0 -69,-64 -69,-88c0,-14 90,-14 101,1c3,4 21,10 40,12c32,4 38,1 72,-44c37,-48 38,-49 92,-49c31,1 58,-2 62,-5c3,-4 14,-2 24,3c15,8 17,7 14,-10c-2,-11 -7,-25 -10,-30c-3,-6 -2,-10 3,-10c12,0 22,24 22,51c0,10 5,19 10,19c6,0 10,7 10,16c0,8 4,13 9,10c5,-3 9,5 9,18c0,40 73,92 96,68c4,-4 24,-12 44,-17c22,-6 41,-19 47,-33c5,-12 13,-22 17,-22c5,0 8,-8 8,-19c0,-10 7,-24 15,-31c8,-7 12,-16 9,-21c-3,-5 2,-9 10,-9c9,0 18,-11 22,-24c4,-18 17,-27 52,-37c26,-7 61,-12 77,-11c17,0 40,-6 52,-14c26,-16 99,-19 108,-4c4,6 3,10 -2,9c-4,-1 -15,-1 -23,0c-12,1 -12,3 -2,9c9,6 0,13 -28,22c-36,12 -55,30 -30,30c23,0 8,19 -17,22c-23,2 -27,7 -25,27c3,22 1,23 -26,18c-27,-6 -30,-3 -43,36c-8,23 -31,58 -51,78c-21,20 -38,46 -38,57c0,18 6,22 35,22c27,0 35,4 35,18c0,21 -33,55 -56,58c-9,1 -23,9 -32,17c-10,8 -29,17 -43,21c-22,5 -25,10 -21,31c2,14 8,25 13,25c5,0 9,7 9,16c0,14 -3,14 -15,4c-13,-11 -19,-9 -35,8c-11,12 -20,26 -20,32c0,6 -4,9 -9,5c-5,-3 -16,2 -24,10c-9,8 -24,15 -35,15c-11,0 -25,7 -32,15c-6,8 -37,21 -68,30c-32,9 -75,27 -97,39c-22,13 -46,21 -52,19c-7,-3 -13,0 -13,5c0,5 -19,12 -41,16c-23,4 -72,23 -109,43c-63,33 -70,35 -98,22c-17,-7 -33,-21 -35,-31c-3,-11 -15,-18 -31,-18c-14,0 -26,-4 -26,-8c0,-5 -8,-18 -17,-30c-10,-11 -25,-30 -33,-41c-8,-12 -24,-21 -36,-21c-17,0 -24,9 -34,48c-7,26 -15,41 -17,34c-7,-18 -23,-4 -23,21c0,18 2,20 11,7c9,-12 10,-11 4,5c-4,11 -8,37 -10,58c-5,46 -13,60 -30,53c-7,-2 -29,4 -49,15c-44,23 -61,23 -106,-1z"/>
   <path id="svg_25" d="m2570.38861,13034.31595c-5,-7 -13,-24 -17,-38c-4,-14 -16,-40 -28,-58c-11,-19 -21,-52 -23,-74c-2,-22 -8,-46 -14,-53c-5,-7 -12,-41 -15,-76c-6,-76 -40,-186 -66,-215c-11,-11 -19,-25 -19,-31c0,-20 -31,-43 -56,-43c-16,0 -39,15 -64,40c-22,22 -48,40 -58,40c-10,0 -25,11 -32,25c-7,14 -19,25 -26,25c-8,0 -16,11 -20,25c-7,27 -24,34 -24,10c0,-10 -18,2 -49,31l-49,47l20,21c11,12 24,31 29,44c5,13 14,20 20,17c6,-4 8,-13 5,-20c-5,-13 31,-28 46,-19c8,5 4,52 -6,62c-3,3 -12,-1 -21,-8c-13,-11 -15,-9 -15,14c0,14 5,25 11,24c6,-2 22,17 36,42c20,37 21,46 10,55c-8,5 -12,16 -10,23c3,6 0,12 -6,12c-6,0 -11,-4 -11,-9c0,-5 -9,-11 -21,-14c-15,-4 -19,-2 -15,9c7,19 0,18 -34,-8c-23,-17 -33,-19 -42,-10c-7,7 -22,12 -34,12c-13,0 -29,6 -36,13c-7,8 -19,12 -26,9c-6,-2 -12,5 -12,15c0,15 -2,16 -10,3c-9,-13 -12,-13 -21,3c-6,9 -14,15 -20,12c-5,-4 -9,3 -9,14c0,18 -3,19 -25,11c-14,-5 -25,-6 -25,-3c0,4 -5,2 -12,-5c-14,-14 7,-43 26,-36c19,7 29,-25 14,-43c-9,-12 -26,-14 -65,-10c-30,3 -53,1 -53,-4c0,-5 -5,-9 -12,-9c-18,0 -67,-60 -62,-75c3,-8 -4,-18 -15,-25c-12,-6 -21,-16 -21,-22c0,-7 -10,-22 -22,-35c-18,-19 -20,-26 -9,-32c23,-15 2,-30 -35,-25c-20,2 -43,-1 -50,-7c-12,-10 -13,-9 -8,5c4,10 0,18 -10,22c-9,3 -16,12 -16,19c0,8 -14,24 -31,36c-29,20 -33,21 -44,6c-7,-9 -14,-15 -16,-12c-11,10 -69,15 -69,5c0,-5 5,-10 10,-10c6,0 10,-10 10,-22c-1,-22 -1,-23 -15,-4c-14,18 -15,18 -15,2c0,-13 -5,-16 -20,-11c-17,5 -20,2 -20,-21c0,-15 -3,-25 -6,-22c-11,11 -58,-44 -60,-70c-1,-15 -3,-31 -3,-36c-1,-4 -17,-5 -37,-1c-23,4 -34,3 -30,-4c4,-5 2,-12 -4,-16c-7,-4 -7,-12 0,-26c7,-11 7,-19 1,-19c-5,0 -11,-8 -14,-17c-2,-10 -8,1 -12,25c-4,23 -11,42 -14,42c-4,0 -24,-17 -44,-38c-29,-29 -37,-46 -37,-73c0,-27 -9,-45 -32,-71c-18,-20 -41,-47 -51,-62c-25,-36 -73,-59 -129,-61c-28,-1 -55,-8 -66,-18c-10,-9 -30,-17 -44,-17c-14,0 -31,-7 -38,-15c-9,-11 -25,-14 -51,-11c-22,2 -41,0 -45,-5c-3,-5 -12,-9 -20,-9c-8,0 -29,-13 -47,-29c-17,-17 -48,-37 -68,-46c-20,-10 -42,-29 -50,-44l-12,-26l-6,30c-5,24 -8,27 -16,15c-25,-38 -35,-65 -35,-92c0,-16 -11,-46 -25,-66c-30,-44 -30,-53 -7,-129c23,-75 18,-113 -8,-57l-18,39l-10,-25l-10,-25l-11,25c-10,22 -11,19 -6,-19c3,-24 13,-57 21,-73c9,-17 17,-53 19,-82c2,-28 7,-64 10,-81c4,-16 7,-43 6,-60c0,-16 -2,-84 -3,-149c-2,-85 -7,-121 -15,-123c-7,-3 -13,-15 -13,-27c0,-30 -27,-66 -51,-66c-12,0 -23,-10 -29,-26c-14,-36 -13,-44 9,-44c11,0 22,-8 25,-18c8,-24 40,-39 98,-46c45,-5 98,8 98,24c0,8 32,21 61,25c9,1 25,11 36,22c25,25 97,35 215,29l86,-5l44,45c23,24 51,44 60,44c9,0 19,4 22,9c3,5 18,12 33,16c16,3 36,13 45,22c12,11 27,13 50,9c33,-6 171,25 193,44c6,5 52,12 103,16c87,7 94,6 117,-16c13,-12 30,-20 37,-18c7,3 30,-6 50,-19c21,-12 43,-23 50,-23c9,0 9,-3 0,-12c-17,-17 -15,-48 2,-48c23,0 34,-91 13,-104c-14,-9 -12,-14 16,-39c32,-28 32,-28 35,-6c4,25 68,89 89,89c8,0 35,20 60,45c25,25 48,43 52,39c3,-4 0,-9 -6,-11c-7,-3 -13,-13 -13,-23c0,-10 -12,-25 -26,-35c-14,-9 -32,-32 -40,-51c-8,-19 -25,-39 -37,-43c-13,-5 -29,-17 -37,-27c-14,-16 -13,-17 10,-11c14,4 33,7 43,7c10,0 27,16 38,35c12,19 25,35 30,35c20,0 7,-50 -21,-78c-33,-33 -30,-44 10,-36c23,5 29,1 40,-27c12,-29 12,-36 -6,-68c-17,-31 -19,-41 -9,-70c7,-19 22,-38 34,-42c11,-5 21,-12 21,-17c0,-5 18,-9 41,-9c23,0 44,-5 48,-10c3,-6 16,-15 28,-22c19,-10 30,-8 70,13c26,14 50,22 53,18c3,-4 22,-16 43,-26c20,-11 37,-26 37,-34c0,-12 4,-12 21,4c58,52 164,104 216,104c64,0 122,32 123,67c0,7 11,24 25,39c14,15 25,32 25,39c0,6 20,30 45,53c25,23 67,68 92,100c61,76 110,123 156,147c20,11 37,25 37,31c0,6 12,24 28,41c45,49 62,73 62,85c0,7 10,28 23,47c57,87 89,146 93,175c3,17 12,48 20,70c16,41 11,65 -5,25c-5,-13 -10,-19 -10,-14c-1,11 17,82 26,105c3,8 5,19 4,23c-1,5 8,23 19,42c11,18 20,41 19,51c0,14 -2,15 -6,4c-15,-41 -53,-48 -53,-9c0,10 -4,19 -9,19c-5,0 -11,14 -14,30c-4,17 -13,30 -21,30c-8,0 -16,10 -18,23c-2,12 -9,21 -16,19c-11,-2 -12,10 -6,54c6,54 6,57 -14,52c-13,-4 -23,0 -26,9c-5,13 -9,13 -22,2c-13,-11 -15,-7 -13,28c2,25 -4,51 -14,67c-21,31 -21,36 -2,36c10,0 14,8 11,23c-2,12 -9,21 -16,19c-17,-4 -79,39 -86,60c-3,10 -11,15 -20,11c-7,-3 -14,0 -14,7c0,6 -4,9 -9,6c-15,-10 -34,23 -29,49c3,14 1,28 -4,31c-4,3 -5,10 -2,16c12,19 4,101 -11,118c-15,16 -17,123 -2,146c4,7 -4,19 -20,29c-24,16 -25,19 -10,30c12,9 14,14 5,23c-7,7 -19,12 -27,11c-11,0 -10,-3 4,-9c20,-9 20,-9 0,-10c-11,-2 -23,-2 -27,-1c-5,0 -8,-3 -8,-9c0,-5 -7,-10 -16,-10c-12,0 -14,10 -12,50c2,37 7,49 16,45c10,-4 13,5 12,33c-1,20 -1,39 0,42c7,21 7,40 -1,40c-10,0 -13,-20 -10,-69c2,-20 -1,-31 -7,-27c-6,3 -9,14 -7,24c1,9 -2,22 -7,28c-10,14 -7,35 7,47c6,5 3,7 -7,3c-17,-5 -43,25 -32,37c3,3 3,19 -1,36c-7,32 -25,40 -43,19zm-2362,-1343c0,-8 -2,-15 -4,-15c-2,0 -6,7 -10,15c-3,8 -1,15 4,15c6,0 10,-7 10,-15zm1900,-1020c-7,-9 -15,-13 -17,-11c-7,7 7,26 19,26c6,0 6,-6 -2,-15z"/>
   <path id="svg_26" d="m1964.38861,10448.31595c-14,-21 -28,-57 -30,-80c-3,-22 -10,-50 -16,-61c-6,-12 -10,-39 -8,-60c2,-35 5,-40 31,-45c31,-6 97,19 97,36c0,7 5,7 13,0c10,-8 20,-4 40,18c15,15 27,35 27,44c0,9 8,16 19,16c12,0 23,9 27,23c4,12 17,38 30,58c31,49 18,60 -49,41c-88,-24 -91,-24 -112,-5c-11,11 -24,21 -30,24c-5,2 -9,10 -7,17c5,21 -4,13 -32,-26z"/>
  </g>
 </g>
</svg>