<svg width="100" height="120" xmlns="http://www.w3.org/2000/svg" preserveAspectRatio="xMidYMid meet" version="1.0">
 <g id="Layer_1">
  <title>Layer 1</title>
  <g id="svg_39" fill="#000000" transform="translate(0 239) scale(0.016963 -0.016963)">
   <path id="svg_1" d="m1859.67249,13509.5685c-17,-6 -28,-17 -28,-28c0,-10 -6,-18 -14,-18c-7,0 -25,-9 -39,-20c-15,-12 -40,-20 -61,-20c-23,0 -39,-5 -42,-15c-4,-10 -14,-13 -28,-9c-41,10 -96,-72 -87,-128c0,-5 -4,-8 -10,-8c-13,0 -39,-25 -39,-37c0,-5 -13,-17 -30,-26c-21,-13 -27,-23 -23,-35c4,-9 -13,4 -38,30c-38,40 -101,78 -130,78c-5,0 -9,-13 -9,-28c0,-20 7,-33 25,-42c13,-7 27,-22 31,-32c3,-11 10,-15 17,-11c8,4 7,1 -1,-9c-15,-19 -7,-61 15,-80c8,-7 20,-24 26,-38c14,-33 19,-207 7,-215c-7,-4 -6,-13 1,-26c11,-22 -5,-89 -22,-89c-5,0 -9,-6 -9,-13c0,-7 -16,-19 -35,-27c-25,-10 -35,-20 -35,-36c0,-12 -7,-24 -15,-28c-11,-4 -14,-13 -10,-29c6,-21 1,-26 -39,-41c-44,-17 -46,-20 -46,-56c0,-24 -5,-40 -15,-44c-8,-3 -15,-17 -15,-30c0,-15 -8,-30 -20,-36c-11,-6 -18,-15 -15,-21c13,-20 14,-89 2,-89c-7,0 3,-13 21,-29c17,-16 32,-34 32,-40c0,-6 5,-11 10,-11c6,0 10,5 10,12c0,6 2,9 5,6c8,-8 -6,-38 -18,-38c-6,0 -28,-19 -50,-42c-35,-39 -38,-47 -32,-83c3,-22 12,-47 20,-56c17,-18 20,-39 5,-39c-26,0 -5,-31 34,-51c33,-16 51,-35 72,-73c15,-28 37,-64 49,-81c12,-16 36,-64 55,-105c18,-41 41,-87 52,-102c10,-14 18,-33 18,-40c0,-8 9,-23 20,-33c11,-10 20,-26 20,-36c0,-10 4,-20 9,-23c21,-13 82,-118 77,-132c-9,-24 12,-63 61,-112c47,-48 183,-134 241,-153c17,-6 32,-14 32,-18c0,-4 16,-16 35,-27c19,-10 35,-22 35,-27c0,-10 26,-37 35,-37c18,0 51,-46 62,-88c29,-108 51,-342 31,-342c-4,0 -8,-11 -8,-25c0,-14 3,-25 8,-25c14,0 26,-409 12,-444c-6,-16 -4,-32 7,-52c10,-21 13,-44 8,-80c-5,-39 -1,-61 15,-98c11,-26 20,-56 20,-67c0,-10 5,-19 10,-19c6,0 11,-19 10,-42c0,-24 0,-52 1,-63c1,-21 -7,-137 -16,-220c-2,-27 -5,-61 -5,-74c0,-17 -4,-22 -16,-17c-13,5 -15,1 -9,-21c3,-16 13,-35 21,-44c8,-8 14,-22 14,-29c0,-7 12,-33 26,-58c18,-31 24,-52 20,-72c-9,-46 5,-127 26,-150c10,-11 14,-20 7,-20c-7,0 -9,-10 -5,-30c3,-16 9,-45 12,-62c11,-59 43,-77 64,-37c9,15 8,24 -1,35c-6,8 -8,14 -4,14c4,0 2,7 -5,15c-7,8 -9,15 -4,15c4,0 3,5 -4,12c-17,17 -15,31 4,24c12,-5 15,-2 10,9c-3,9 -2,13 4,10c6,-3 10,-13 10,-21c0,-8 5,-14 11,-14c5,0 8,-4 5,-8c-3,-5 -1,-24 4,-43c5,-19 11,-56 15,-83c3,-28 11,-53 17,-57c9,-6 7,-10 -7,-15c-11,-4 -23,-9 -26,-10c-3,-2 -5,9 -3,24c3,27 -9,42 -34,42c-8,0 -10,-5 -5,-12c13,-22 12,-38 -3,-38c-7,0 -18,-9 -24,-19c-12,-24 -13,-42 -1,-22c13,21 51,-4 51,-34c0,-14 -5,-25 -11,-25c-7,0 -9,-11 -6,-30c4,-19 1,-34 -8,-44c-8,-8 -12,-22 -9,-30c7,-19 31,-21 36,-5c3,9 10,9 26,0c12,-7 27,-9 32,-6c6,3 7,-1 4,-9c-3,-9 -2,-16 4,-16c18,0 -3,-54 -26,-66c-12,-6 -19,-14 -14,-18c4,-4 7,-11 7,-14c2,-20 18,-52 26,-52c5,0 8,-3 7,-7c-2,-14 19,-58 35,-72c9,-7 19,-26 22,-42c4,-16 11,-30 16,-30c5,-1 15,-2 22,-3c6,0 15,-19 18,-41c3,-22 7,-35 8,-30c1,6 11,-5 23,-23c16,-26 26,-32 43,-28c14,4 30,-2 46,-17c13,-12 27,-21 31,-19c5,1 8,-3 8,-9c0,-11 -13,-9 -55,6c-13,5 -9,-3 14,-24c24,-23 36,-29 41,-20c11,16 31,2 23,-17c-3,-8 -2,-14 3,-13c17,4 44,-13 44,-27c0,-9 11,-14 30,-14c23,0 28,4 23,16c-3,9 -13,14 -24,11c-11,-3 -19,-1 -19,4c0,19 40,8 51,-13c7,-13 11,-25 10,-28c-1,-3 5,-9 15,-15c10,-5 24,-16 32,-23c17,-16 32,-16 32,1c0,8 3,7 10,-3c5,-8 13,-15 17,-16c4,0 21,-6 36,-12c16,-7 32,-10 37,-7c5,3 11,1 15,-5c4,-6 11,-8 16,-5c5,4 9,2 9,-4c0,-6 20,-10 45,-9c25,0 52,-5 60,-12c9,-7 19,-10 23,-6c4,4 -2,14 -12,21c-16,13 -12,14 39,10c47,-3 56,-2 51,10c-3,9 1,15 10,15c8,0 17,7 20,15c4,8 11,15 16,15c6,0 5,-6 -2,-15c-10,-12 -10,-15 4,-15c9,0 16,8 16,20c0,16 -7,20 -35,20c-52,0 -160,57 -219,115c-29,29 -50,57 -48,63c2,6 -9,18 -23,28c-33,22 -85,96 -85,123c0,14 8,23 25,27c30,7 39,32 25,69c-12,31 -7,40 47,88c19,17 30,34 26,41c-4,6 -9,20 -10,30c-5,31 -23,46 -54,46c-32,0 -95,34 -108,59c-23,41 16,101 66,101c25,0 39,15 22,26c-8,5 -7,9 2,14c10,7 9,17 -4,50l-16,43l30,28c17,16 37,29 45,29c16,0 18,23 4,50c-9,16 -18,19 -54,14l-44,-6l-24,53c-14,30 -21,56 -16,57c5,2 27,-3 49,-12c47,-19 79,-20 114,-4c26,11 34,41 14,54c-7,4 -8,20 -4,41c5,26 2,40 -11,54c-17,19 -17,20 1,13c13,-5 16,-4 11,4c-5,9 6,12 39,12c107,0 245,50 245,88c0,10 4,22 9,27c35,39 30,125 -8,125c-20,0 -31,18 -31,54c0,26 -24,50 -72,74c-18,10 -35,26 -37,37c-3,19 -3,19 16,3c11,-10 34,-18 51,-18c18,0 32,-4 32,-9c0,-13 47,-24 115,-26c83,-4 120,18 131,74c4,17 9,31 13,31c12,0 38,54 45,91c4,23 19,46 41,66c25,22 33,36 28,49c-6,15 -7,15 -14,-5c-8,-20 -35,-38 -44,-29c-3,2 6,20 20,38c14,19 25,44 25,55c0,13 6,22 16,22c11,0 14,-7 11,-23c-2,-13 2,-25 9,-28c9,-3 17,9 25,37c26,94 32,108 60,138c39,41 52,107 34,160c-13,36 -17,149 -6,146c8,-2 91,83 91,93c0,5 14,11 30,15c17,4 30,11 30,17c0,6 13,8 35,4c22,-4 35,-3 35,4c0,5 -5,10 -11,10c-5,0 -8,4 -5,9c11,17 136,52 189,52c51,1 55,3 60,28c4,15 19,33 38,44c25,14 30,22 25,40c-5,20 13,67 70,178c9,17 11,43 8,76c-5,39 -3,53 12,67c17,17 29,99 26,181c0,17 -2,75 -4,130c-4,95 3,125 28,125c11,0 33,31 55,80c35,79 43,92 67,114c31,29 110,139 122,170c23,60 22,132 -3,220c-14,48 -28,90 -31,93c-4,4 -33,10 -65,14c-64,7 -65,8 -146,86c-30,28 -79,66 -110,83c-50,29 -59,31 -99,22c-32,-7 -50,-5 -70,5c-15,8 -31,11 -37,8c-5,-4 -21,0 -34,9c-30,20 -89,31 -80,15c5,-8 0,-9 -16,-4c-29,10 -47,27 -42,41c2,7 -3,19 -12,27c-8,9 -15,20 -15,26c0,6 -4,11 -10,11c-5,0 -10,-4 -10,-10c0,-11 -71,19 -82,35c-4,6 -8,6 -8,1c0,-5 -6,-3 -14,3c-14,11 -39,19 -83,26c-27,4 -62,-20 -74,-52c-16,-42 -19,-21 -4,22c20,58 19,62 -22,68c-23,4 -43,15 -51,27c-7,11 -18,20 -26,20c-14,0 -14,14 0,72c4,20 0,35 -17,57c-13,16 -29,30 -34,30c-12,1 -35,78 -35,119c0,23 -39,91 -40,70c0,-4 -25,17 -57,47c-31,30 -61,55 -68,55c-7,0 -26,7 -44,16c-36,18 -152,28 -161,14c-11,-18 -85,11 -128,51c-24,21 -48,39 -53,39c-5,0 -9,10 -9,23c-1,12 -9,32 -19,44c-28,34 -110,81 -130,76c-22,-6 -37,13 -24,30c15,20 9,41 -14,52c-13,5 -23,13 -23,17c0,5 -8,8 -18,8c-10,0 -24,6 -30,12c-10,10 -15,10 -22,-2c-6,-9 -10,-10 -10,-3c0,6 -3,18 -6,27c-4,10 -1,16 8,16c8,0 23,7 34,15c17,15 11,15 -76,11c-52,-3 -98,-6 -102,-6c-5,0 -8,-6 -8,-13c0,-8 -11,-19 -24,-26c-30,-16 -96,2 -96,26c0,13 -12,14 -85,8l-85,-7l0,26c0,29 -48,66 -87,66c-17,0 -23,6 -23,23c0,29 -7,37 -26,30c-8,-3 -14,-19 -14,-39c0,-28 -4,-35 -27,-40c-16,-4 -41,-16 -57,-27c-25,-18 -29,-18 -23,-4c3,9 2,17 -3,17c-6,0 -10,9 -10,20c0,12 7,20 16,20c18,0 43,27 44,47c0,20 -33,31 -62,19zm42,-236c0,-24 -16,-50 -30,-50c-4,0 -13,17 -20,39c-11,34 -10,41 6,60l18,21l13,-23c7,-12 12,-33 13,-47zm187,-2193c14,-16 19,-28 13,-37c-7,-12 -10,-11 -16,3c-3,9 -12,17 -19,17c-7,0 -15,9 -18,20c-7,27 13,25 40,-3zm1933,-647c0,-5 -2,-10 -4,-10c-3,0 -8,5 -11,10c-3,6 -1,10 4,10c6,0 11,-4 11,-10zm-373,-652c-3,-8 -6,-5 -6,6c-1,11 2,17 5,13c3,-3 4,-12 1,-19zm-722,-1038c3,-5 -3,-10 -14,-10c-12,0 -21,5 -21,10c0,6 6,10 14,10c8,0 18,-4 21,-10zm-541,-165c-4,-8 -10,-12 -15,-9c-11,6 -2,24 11,24c5,0 7,-7 4,-15zm-19,-36c10,-30 0,-33 -13,-4c-6,14 -7,25 -2,25c5,0 12,-9 15,-21zm45,-33c0,-2 -7,-6 -15,-10c-8,-3 -15,-1 -15,4c0,6 7,10 15,10c8,0 15,-2 15,-4zm450,-636c0,-24 17,-34 55,-32c29,2 29,1 7,-11c-12,-7 -19,-17 -15,-23c5,-5 -1,0 -11,11c-14,15 -20,17 -24,7c-2,-9 -9,-4 -18,13c-16,32 -19,69 -4,60c6,-3 10,-15 10,-25zm-65,1c-3,-6 -14,-11 -23,-11c-13,0 -13,2 4,14c21,15 30,14 19,-3z"/>
   <path id="svg_2" d="m3476.67249,8024.5685c-11,-5 -27,-6 -35,-3c-12,4 -13,2 -2,-9c17,-18 15,-40 -3,-33c-28,11 -15,-15 14,-31c29,-15 30,-14 62,23c17,21 28,28 24,17c-18,-48 -18,-55 1,-55c11,0 41,13 67,29c43,25 46,29 31,42c-9,8 -38,15 -63,16c-25,0 -53,4 -61,6c-8,3 -24,2 -35,-2z"/>
  </g>
 </g>
</svg>